<?xml version="1.0" standalone="no"?>
<!DOCTYPE svg PUBLIC "-//W3C//DTD SVG 20010904//EN"
 "http://www.w3.org/TR/2001/REC-SVG-20010904/DTD/svg10.dtd">
<svg version="1.0" xmlns="http://www.w3.org/2000/svg"
 width="2048.000000pt" height="1924.000000pt" viewBox="0 0 2048.000000 1924.000000"
 preserveAspectRatio="xMidYMid meet">

<g transform="translate(0.000000,1924.000000) scale(0.100000,-0.100000)"
fill="#000000" stroke="none">
<path d="M14265 18528 c-156 -52 -267 -163 -515 -508 -25 -35 -50 -68 -55 -74
-19 -20 -121 -161 -187 -256 -80 -116 -181 -288 -237 -400 -42 -83 -142 -234
-411 -620 -233 -333 -270 -386 -412 -585 -439 -613 -457 -635 -493 -621 -26
10 -17 50 66 278 45 123 103 288 130 367 28 79 90 237 139 351 188 437 261
678 259 865 -1 145 -50 200 -179 200 -51 0 -77 -6 -120 -28 -170 -86 -403
-361 -625 -737 -37 -63 -109 -185 -160 -270 -145 -244 -233 -404 -354 -647
-39 -79 -71 -144 -71 -147 0 -2 -18 -42 -39 -88 -227 -481 -424 -1125 -490
-1596 -46 -328 -53 -669 -17 -862 60 -318 162 -625 283 -850 44 -81 137 -230
167 -267 8 -10 31 -38 51 -63 59 -73 194 -208 270 -270 264 -215 609 -361 999
-422 115 -18 185 -22 381 -22 313 -1 416 14 818 114 144 36 255 70 722 220 66
21 174 55 240 75 66 20 145 45 175 55 393 129 485 154 843 234 188 42 289 76
367 122 124 72 240 207 240 277 0 196 -210 334 -600 392 -339 51 -993 40
-1183 -20 -88 -28 -178 -33 -196 -11 -20 24 12 70 133 191 61 61 133 135 160
165 45 51 177 195 462 505 60 66 123 135 140 154 29 35 131 147 359 396 66 72
163 178 215 235 52 58 106 116 119 130 49 49 268 298 372 420 307 362 495 620
594 811 48 92 49 96 53 200 4 91 1 113 -16 152 -70 159 -295 99 -687 -181 -77
-56 -220 -166 -235 -182 -3 -3 -48 -41 -100 -85 -100 -84 -141 -120 -249 -221
-36 -34 -124 -110 -196 -169 -71 -59 -153 -126 -181 -150 -28 -24 -86 -72
-130 -107 -43 -34 -88 -70 -99 -80 -57 -47 -281 -219 -440 -338 -241 -180
-335 -236 -335 -200 0 9 47 87 60 100 3 3 30 41 60 85 29 44 87 125 127 180
40 55 79 109 87 120 8 11 57 76 108 145 51 69 100 135 108 147 8 12 96 129
195 258 99 130 194 258 211 283 18 26 84 115 148 197 534 688 808 1099 992
1484 108 226 146 358 148 503 1 94 -1 110 -20 135 -20 26 -27 28 -85 28 -51 0
-78 -7 -134 -33 -140 -66 -288 -174 -510 -372 -87 -77 -466 -461 -554 -560
-47 -52 -126 -140 -176 -195 -164 -177 -576 -652 -920 -1060 -60 -70 -233
-275 -259 -305 -118 -138 -316 -357 -369 -407 -66 -64 -97 -78 -97 -45 0 41
182 460 385 887 32 66 70 147 85 180 26 56 55 116 203 425 95 199 259 535 396
811 72 146 131 269 131 272 0 3 36 82 81 174 45 92 97 214 116 271 82 245 62
420 -54 468 -46 20 -138 16 -208 -8z"/>
<path d="M4551 12225 c-83 -29 -91 -37 -127 -113 -54 -117 -16 -247 122 -427
59 -77 195 -216 279 -287 22 -18 42 -36 45 -39 14 -18 138 -113 235 -181 61
-43 115 -82 121 -87 51 -42 262 -170 274 -166 8 4 11 3 7 -1 -11 -12 93 -71
187 -106 48 -18 104 -47 124 -63 31 -27 34 -33 23 -53 -13 -25 -78 -46 -191
-61 -41 -6 -118 -19 -170 -30 -150 -30 -614 -126 -855 -176 -121 -25 -263 -54
-315 -65 -52 -10 -216 -44 -365 -75 -148 -31 -304 -63 -345 -71 -475 -93
-1209 -282 -1193 -307 3 -6 1 -7 -5 -3 -24 15 -340 -104 -423 -159 -21 -14
-42 -25 -47 -25 -27 0 -144 -157 -157 -213 -18 -70 22 -135 110 -176 98 -46
214 -62 479 -68 260 -6 440 3 751 37 443 49 1239 87 1626 78 110 -3 199 -1
199 4 0 4 4 8 9 8 5 0 3 -13 -5 -29 -12 -23 -31 -36 -92 -59 -155 -59 -472
-162 -952 -312 -551 -171 -605 -187 -940 -287 -420 -124 -622 -190 -628 -205
-2 -5 -8 -6 -12 -3 -5 3 -44 -8 -87 -24 -43 -16 -114 -43 -158 -60 -44 -16
-100 -38 -125 -49 -25 -11 -80 -34 -123 -52 -42 -18 -75 -36 -71 -41 3 -5 -1
-6 -9 -3 -17 6 -226 -97 -362 -179 -140 -85 -194 -127 -188 -146 4 -14 3 -14
-6 -1 -17 24 -153 -124 -180 -196 -26 -68 -26 -64 4 -96 114 -123 602 -119
1315 13 91 17 199 36 240 43 83 15 441 90 499 105 20 6 77 19 126 30 172 38
546 128 1170 281 513 126 765 180 840 180 65 0 61 -26 -12 -73 -32 -20 -63
-41 -70 -47 -11 -9 -81 -51 -148 -90 -16 -9 -72 -41 -122 -70 -53 -30 -90 -57
-86 -63 3 -6 1 -7 -5 -3 -6 4 -62 -22 -124 -57 -139 -78 -398 -222 -493 -272
-38 -21 -74 -41 -80 -45 -5 -4 -53 -30 -105 -57 -52 -28 -138 -74 -190 -103
-52 -29 -135 -74 -185 -100 -89 -46 -183 -96 -320 -170 -38 -21 -110 -59 -160
-85 -323 -170 -398 -213 -390 -226 4 -5 -1 -6 -10 -3 -8 4 -21 2 -28 -3 -6 -6
-61 -36 -120 -67 -153 -80 -250 -148 -337 -235 -90 -91 -125 -155 -125 -228 0
-43 5 -57 31 -90 32 -38 37 -40 84 -28 22 5 21 4 -4 -7 -35 -17 -26 -26 57
-57 149 -55 316 -35 656 78 80 27 207 68 281 91 267 83 577 211 563 233 -3 6
-1 7 5 3 6 -4 37 7 69 23 32 16 83 39 113 50 167 60 205 75 208 83 2 4 7 6 12
3 5 -3 43 8 85 24 42 16 89 33 105 36 17 4 30 11 30 17 0 6 3 9 6 5 3 -3 69
17 147 44 78 27 268 92 422 144 921 313 974 328 989 289 6 -16 -44 -73 -89
-102 -55 -34 -565 -387 -583 -402 -11 -10 -102 -64 -247 -147 -33 -19 -81 -50
-108 -69 -26 -19 -50 -34 -54 -34 -4 0 -24 -12 -44 -26 -26 -17 -36 -31 -32
-42 4 -13 3 -14 -5 -3 -8 11 -19 7 -58 -20 -103 -70 -182 -135 -267 -221 -74
-73 -87 -91 -82 -110 4 -15 3 -19 -3 -10 -12 18 -38 -21 -54 -82 -14 -54 -4
-79 58 -142 27 -28 55 -44 86 -52 72 -18 233 -15 345 8 171 34 436 119 581
186 41 19 76 34 80 34 3 0 33 13 66 28 34 16 80 37 103 47 23 10 40 22 36 28
-3 6 -1 7 6 3 7 -4 26 -1 44 7 18 8 55 25 82 37 28 12 78 35 113 51 35 16 66
29 69 29 5 0 395 194 423 211 8 5 87 50 175 100 225 128 232 132 307 181 37
23 101 65 142 91 102 65 318 223 440 321 221 178 450 391 440 408 -4 7 -3 8 5
4 12 -8 68 51 63 67 -1 5 2 6 7 3 10 -7 136 127 196 209 17 22 35 46 42 53 70
74 250 362 236 376 -4 3 -1 6 5 6 7 0 12 4 12 9 0 5 17 47 39 93 90 193 176
463 204 643 33 206 37 247 37 377 0 138 -17 293 -44 413 -23 99 -88 295 -98
295 -4 0 -8 6 -8 14 0 17 -46 119 -86 189 -20 37 -29 45 -36 35 -7 -9 -8 -7
-3 8 6 25 -55 120 -167 260 -92 114 -225 251 -234 241 -5 -4 5 -19 21 -32 15
-14 26 -27 24 -29 -6 -7 -55 38 -62 57 -4 11 -3 16 3 12 26 -16 5 14 -30 43
-46 38 -63 42 -30 7 l24 -25 -22 -20 c-12 -12 -22 -16 -22 -11 0 6 8 14 17 20
16 9 15 12 -9 34 -16 15 -23 27 -16 29 12 4 -115 106 -219 176 -40 27 -68 40
-80 36 -13 -4 -14 -3 -5 4 10 7 3 15 -30 34 -24 14 -50 28 -58 32 -8 3 -30 15
-47 26 -87 52 -302 148 -498 222 -44 16 -381 131 -750 253 -832 278 -836 279
-1060 380 -27 12 -61 26 -75 30 -14 4 -52 21 -85 37 -115 55 -180 70 -325 75
-125 3 -140 2 -209 -22z m262 8 c-7 -2 -21 -2 -30 0 -10 3 -4 5 12 5 17 0 24
-2 18 -5z m-143 -14 c32 -1 33 -2 10 -9 -14 -4 -43 -8 -65 -8 -27 1 -32 2 -15
6 24 4 24 5 5 13 -17 8 -16 9 5 4 14 -2 41 -5 60 -6z m83 -6 c-7 -2 -21 -2
-30 0 -10 3 -4 5 12 5 17 0 24 -2 18 -5z m80 0 c-7 -2 -19 -2 -25 0 -7 3 -2 5
12 5 14 0 19 -2 13 -5z m64 -9 c-3 -3 -12 -4 -19 -1 -8 3 -5 6 6 6 11 1 17 -2
13 -5z m183 -44 c13 -8 13 -10 -2 -10 -9 0 -20 5 -23 10 -8 13 5 13 25 0z
m-594 -21 c3 -6 1 -16 -6 -22 -10 -9 -12 -8 -7 6 9 23 -2 22 -24 -5 -11 -11
-19 -17 -19 -13 0 11 31 45 41 45 4 0 11 -5 15 -11z m584 -9 c-8 -5 -19 -10
-25 -10 -5 0 -3 5 5 10 8 5 20 10 25 10 6 0 3 -5 -5 -10z m-593 -77 c-3 -10
-5 -4 -5 12 0 17 2 24 5 18 2 -7 2 -21 0 -30z m750 31 c-3 -3 -12 -4 -19 -1
-8 3 -5 6 6 6 11 1 17 -2 13 -5z m-767 -26 c0 -19 -2 -20 -10 -8 -13 19 -13
30 0 30 6 0 10 -10 10 -22z m805 13 c-6 -5 -23 -12 -40 -15 l-30 -6 30 14 c35
18 54 20 40 7z m45 -12 c12 -8 10 -9 -9 -4 -17 5 -22 4 -16 -5 5 -9 4 -11 -4
-6 -6 4 -9 12 -6 17 8 12 16 11 35 -2z m74 -46 c-8 -9 -18 -12 -22 -8 -4 4 -1
10 6 12 6 3 10 9 7 14 -4 5 1 6 9 3 14 -5 14 -8 0 -21z m59 -10 c3 -5 -6 -9
-19 -9 -13 -1 -21 2 -18 7 6 11 31 12 37 2z m8 -29 c-25 -8 -47 -12 -49 -9 -5
5 56 23 78 23 8 0 -5 -6 -29 -14z m-1010 -41 c-12 -20 -14 -14 -5 12 4 9 9 14
11 11 3 -2 0 -13 -6 -23z m36 -5 c-3 -8 -6 -5 -6 6 -1 11 2 17 5 13 3 -3 4
-12 1 -19z m1149 -4 c-5 -13 -1 -14 23 -9 16 3 32 2 35 -3 9 -14 -20 -34 -41
-29 -14 4 -14 5 4 6 12 0 25 5 28 11 4 6 -5 8 -22 5 -15 -3 -35 -1 -43 5 -13
9 -13 11 0 20 21 13 23 12 16 -6z m-1161 -30 c2 -16 7 -40 10 -54 4 -18 0 -14
-15 13 -13 23 -18 46 -15 58 8 25 14 20 20 -17z m1272 0 c-3 -3 -12 -4 -19 -1
-8 3 -5 6 6 6 11 1 17 -2 13 -5z m147 -50 c21 -8 21 -24 0 -24 -8 0 -12 5 -8
11 4 8 -1 9 -16 4 -15 -5 -20 -4 -16 4 8 12 17 14 40 5z m71 -24 c16 -7 14 -8
-12 -7 -17 1 -29 5 -26 10 5 9 12 8 38 -3z m-1417 -38 c6 -18 -15 -14 -22 4
-4 10 -1 14 6 12 6 -2 14 -10 16 -16z m12 -29 c-11 -17 -11 -17 -6 0 3 10 6
24 7 30 0 9 2 9 5 0 3 -7 0 -20 -6 -30z m1560 7 c-8 -5 -19 -10 -25 -10 -5 0
-3 5 5 10 8 5 20 10 25 10 6 0 3 -5 -5 -10z m53 -23 c-2 -4 7 -5 21 -1 16 4
26 2 26 -5 0 -15 -40 -13 -70 3 l-25 14 27 -1 c14 -1 24 -6 21 -10z m-48 -7
c13 -6 15 -9 5 -9 -8 0 -22 4 -30 9 -18 12 -2 12 25 0z m-1555 -16 c0 -8 -5
-12 -10 -9 -6 4 -8 11 -5 16 9 14 15 11 15 -7z m50 -14 c0 -5 -4 -10 -9 -10
-6 0 -13 5 -16 10 -3 6 1 10 9 10 9 0 16 -4 16 -10z m1735 -20 c-3 -5 -11 -10
-16 -10 -6 0 -7 5 -4 10 3 6 11 10 16 10 6 0 7 -4 4 -10z m-1727 -20 c-7 -10
-14 -17 -17 -15 -4 4 18 35 25 35 2 0 -1 -9 -8 -20z m1797 11 c14 -6 7 -8 -25
-8 -32 0 -39 2 -25 8 11 4 22 8 25 8 3 0 14 -4 25 -8z m-64 -29 c-7 -2 -18 1
-23 6 -8 8 -4 9 13 5 13 -4 18 -8 10 -11z m-1720 -15 c-10 -9 -11 -8 -5 6 3
10 9 15 12 12 3 -3 0 -11 -7 -18z m1954 -27 c-3 -5 -10 -10 -16 -10 -5 0 -9 5
-9 10 0 6 7 10 16 10 8 0 12 -4 9 -10z m65 -10 c13 -9 13 -10 0 -10 -13 0 -13
-2 0 -11 12 -9 11 -9 -5 -4 -11 4 -28 10 -38 13 -15 4 -16 7 -5 13 17 11 30
11 48 -1z m-59 -28 c-7 -2 -18 1 -23 6 -8 8 -4 9 13 5 13 -4 18 -8 10 -11z
m106 12 c-3 -3 -12 -4 -19 -1 -8 3 -5 6 6 6 11 1 17 -2 13 -5z m-1980 -35 c2
-17 -1 -18 -13 -8 -13 11 -10 20 11 29 1 0 1 -9 2 -21z m2113 -19 c-20 -13
-33 -13 -25 0 3 6 14 10 23 10 15 0 15 -2 2 -10z m40 -10 c-8 -5 -19 -10 -25
-10 -5 0 -3 5 5 10 8 5 20 10 25 10 6 0 3 -5 -5 -10z m58 -9 c10 -6 7 -10 -13
-15 -17 -4 -32 -2 -39 4 -8 8 -6 9 7 5 10 -4 17 -2 17 4 0 13 10 14 28 2z
m-81 -17 c-3 -3 -12 -4 -19 -1 -8 3 -5 6 6 6 11 1 17 -2 13 -5z m-2049 -14
c-2 -21 5 -30 23 -30 13 0 23 -8 26 -21 4 -12 11 -18 20 -15 8 3 11 1 8 -4 -4
-6 11 -10 36 -10 47 0 45 -14 -2 -16 -21 -1 -39 7 -59 27 -15 16 -33 29 -37
29 -5 0 -19 10 -31 23 -20 21 -20 23 -2 23 10 0 18 -3 18 -6z m70 -12 c19 -19
14 -33 -5 -16 -10 9 -25 18 -33 21 -11 4 -9 6 6 6 11 1 25 -4 32 -11z m2176
-10 c-7 -12 -54 -10 -54 2 0 6 13 9 29 8 16 -1 27 -6 25 -10z m46 -8 c13 -8
13 -10 -2 -10 -9 0 -20 5 -23 10 -8 13 5 13 25 0z m140 -70 c-19 -13 -30 -13
-30 0 0 6 10 10 23 10 18 0 19 -2 7 -10z m-2270 -16 c0 -8 -5 -12 -10 -9 -6 4
-8 11 -5 16 9 14 15 11 15 -7z m-30 -4 c0 -5 -2 -10 -4 -10 -3 0 -8 5 -11 10
-3 6 -1 10 4 10 6 0 11 -4 11 -10z m2355 -10 c3 -5 2 -10 -4 -10 -5 0 -18 -3
-28 -6 -15 -5 -15 -4 -3 5 12 9 10 11 -12 11 -16 0 -28 -5 -28 -12 0 -6 -3 -9
-6 -5 -3 3 -3 10 1 16 8 14 72 14 80 1z m55 0 c18 -12 2 -12 -25 0 -13 6 -15
9 -5 9 8 0 22 -4 30 -9z m-2303 -37 c2 -6 -6 -17 -19 -23 -21 -10 -21 -10 -5
3 25 21 21 26 -18 23 -19 -2 -32 0 -30 4 7 12 68 6 72 -7z m2448 -33 c3 -5 1
-10 -4 -10 -6 0 -11 5 -11 10 0 6 2 10 4 10 3 0 8 -4 11 -10z m-2445 -20 c0
-5 -2 -10 -4 -10 -3 0 -8 5 -11 10 -3 6 -1 10 4 10 6 0 11 -4 11 -10z m2425 0
c3 -6 -1 -7 -9 -4 -18 7 -21 14 -7 14 6 0 13 -4 16 -10z m59 2 c2 -4 -4 -8
-14 -8 -10 0 -16 4 -14 8 3 4 9 8 14 8 5 0 11 -4 14 -8z m-2409 -40 c1 -12 1
-22 0 -22 0 0 -16 11 -33 24 l-33 24 32 -2 c26 -1 33 -6 34 -24z m2425 3 c-7
-9 -15 -13 -17 -11 -6 6 20 36 26 30 2 -2 -2 -10 -9 -19z m55 -15 c22 -9 13
-13 -22 -10 -13 1 -23 -3 -23 -9 0 -5 10 -12 23 -14 12 -2 5 -4 -15 -3 -43 1
-44 3 -20 27 19 20 28 21 57 9z m-2352 -45 c23 4 39 4 35 0 -10 -11 -88 -24
-82 -14 3 5 -5 10 -18 10 -17 1 -18 3 -5 6 9 2 18 12 18 21 1 10 4 7 6 -6 4
-22 8 -23 46 -17z m2406 21 c10 -12 8 -13 -8 -9 -12 3 -21 9 -21 14 0 14 16
11 29 -5z m113 -69 c34 -23 35 -24 13 -24 -14 0 -22 3 -19 8 7 11 1 11 -31 -1
-17 -7 -24 -7 -20 0 3 6 13 10 21 10 8 0 14 5 14 10 0 6 -12 9 -26 8 -15 -2
-29 2 -31 8 -6 19 40 8 79 -19z m-2495 6 c-9 -9 -20 -13 -24 -9 -4 4 -1 11 7
16 25 16 35 11 17 -7z m88 -74 c11 -17 -1 -21 -15 -4 -8 9 -8 15 -2 15 6 0 14
-5 17 -11z m2529 -28 c-3 -3 -15 6 -27 18 l-22 24 27 -19 c14 -10 24 -21 22
-23z m-2369 -59 c-3 -3 -11 0 -18 7 -9 10 -8 11 6 5 10 -3 15 -9 12 -12z
m2450 8 c3 -6 -1 -7 -9 -4 -18 7 -21 14 -7 14 6 0 13 -4 16 -10z m2 -37 c-8
-7 -35 9 -41 23 -4 11 0 11 20 -2 13 -9 23 -18 21 -21z m-2377 -17 c0 -11 -19
-15 -25 -6 -3 5 1 10 9 10 9 0 16 -2 16 -4z m65 -6 c4 -7 -3 -8 -22 -4 -38 9
-42 14 -10 14 14 0 29 -5 32 -10z m22 -32 c-3 -8 -6 -5 -6 6 -1 11 2 17 5 13
3 -3 4 -12 1 -19z m-37 2 c0 -5 -7 -7 -15 -4 -8 4 -15 8 -15 10 0 2 7 4 15 4
8 0 15 -4 15 -10z m2417 -16 c-3 -3 -12 -4 -19 -1 -8 3 -5 6 6 6 11 1 17 -2
13 -5z m-2300 -29 c0 -10 -6 -14 -14 -10 -8 3 -18 5 -21 6 -4 0 2 4 13 9 11 5
20 9 21 9 0 1 1 -6 1 -14z m77 6 c4 -5 -3 -7 -14 -4 -23 6 -26 13 -6 13 8 0
17 -4 20 -9z m-34 -11 c12 -8 11 -10 -7 -10 -13 0 -23 5 -23 10 0 13 11 13 30
0z m2305 -29 c-6 -5 -25 10 -25 20 0 5 6 4 14 -3 8 -7 12 -15 11 -17z m-2265
9 c0 -5 -6 -10 -12 -11 -10 0 -10 -2 0 -6 6 -2 12 -9 12 -15 0 -7 -5 -6 -14 2
-8 6 -12 18 -9 26 6 16 23 19 23 4z m2325 -20 c3 -5 1 -10 -4 -10 -6 0 -11 5
-11 10 0 6 2 10 4 10 3 0 8 -4 11 -10z m-60 -18 c-3 -3 -11 0 -18 7 -9 10 -8
11 6 5 10 -3 15 -9 12 -12z m-2228 -8 c-3 -3 -12 -4 -19 -1 -8 3 -5 6 6 6 11
1 17 -2 13 -5z m2313 -4 c8 -5 12 -11 10 -14 -3 -2 -14 2 -24 10 -22 15 -10
19 14 4z m-5 -38 c-3 -3 -11 0 -18 7 -9 10 -8 11 6 5 10 -3 15 -9 12 -12z m0
-30 c-3 -3 -11 0 -18 7 -9 10 -8 11 6 5 10 -3 15 -9 12 -12z m64 2 c13 -12 -8
-10 -29 2 l-25 15 25 -7 c14 -3 27 -8 29 -10z m11 -39 c-7 -9 -15 -13 -19 -10
-3 3 1 10 9 15 21 14 24 12 10 -5z m-2463 -1 c-3 -3 -12 -4 -19 -1 -8 3 -5 6
6 6 11 1 17 -2 13 -5z m2513 -36 c0 -6 -7 -5 -15 2 -11 9 -15 9 -15 1 0 -7 -4
-9 -10 -6 -6 4 -5 11 3 20 13 14 37 3 37 -17z m-2594 5 c12 -3 25 0 28 6 4 6
14 11 22 11 25 0 6 -18 -25 -25 -20 -4 -40 -1 -58 10 -15 9 -19 13 -8 9 11 -3
30 -9 41 -11z m117 10 c-7 -2 -19 -2 -25 0 -7 3 -2 5 12 5 14 0 19 -2 13 -5z
m-176 -19 c-3 -3 -12 -4 -19 -1 -8 3 -5 6 6 6 11 1 17 -2 13 -5z m-240 -30
c-3 -3 -12 -4 -19 -1 -8 3 -5 6 6 6 11 1 17 -2 13 -5z m2922 -44 c0 -10 -3 -8
-9 5 -12 27 -12 43 0 25 5 -8 9 -22 9 -30z m-2989 20 c18 -12 2 -12 -25 0 -13
6 -15 9 -5 9 8 0 22 -4 30 -9z m80 0 c-8 -5 -26 -9 -40 -9 -23 1 -23 2 5 9 43
11 52 11 35 0z m-153 -6 c-3 -3 -12 -4 -19 -1 -8 3 -5 6 6 6 11 1 17 -2 13 -5z
m-47 -14 c0 -5 -2 -10 -4 -10 -3 0 -8 5 -11 10 -3 6 -1 10 4 10 6 0 11 -4 11
-10z m88 -7 c-10 -2 -26 -2 -35 0 -10 3 -2 5 17 5 19 0 27 -2 18 -5z m69 1
c-3 -3 -12 -4 -19 -1 -8 3 -5 6 6 6 11 1 17 -2 13 -5z m-450 -50 c-3 -3 -12
-4 -19 -1 -8 3 -5 6 6 6 11 1 17 -2 13 -5z m40 -10 c-3 -3 -12 -4 -19 -1 -8 3
-5 6 6 6 11 1 17 -2 13 -5z m3472 -43 c0 -14 -1 -14 -6 -1 -3 8 -13 24 -22 35
-16 20 -16 20 7 1 12 -11 22 -26 21 -35z m-3502 31 c6 -4 -10 -7 -35 -8 -32
-1 -41 1 -27 7 26 10 47 10 62 1z m3471 -20 c9 -14 10 -22 3 -22 -6 0 -11 7
-11 15 0 7 -8 19 -17 25 -10 6 -12 10 -4 8 8 -2 21 -14 29 -26z m-3605 11 c-7
-2 -21 -2 -30 0 -10 3 -4 5 12 5 17 0 24 -2 18 -5z m-233 -53 c20 -6 21 -8 5
-8 -11 0 -29 3 -40 8 -25 11 1 11 35 0z m3857 -12 c-3 -8 -6 -5 -6 6 -1 11 2
17 5 13 3 -3 4 -12 1 -19z m-3890 -4 c-3 -3 -12 -4 -19 -1 -8 3 -5 6 6 6 11 1
17 -2 13 -5z m46 -11 c-7 -2 -19 -2 -25 0 -7 3 -2 5 12 5 14 0 19 -2 13 -5z
m-273 -23 c0 -5 -12 -10 -27 -9 -25 0 -26 1 -8 9 27 12 35 12 35 0z m-107 -17
c-7 -2 -19 -2 -25 0 -7 3 -2 5 12 5 14 0 19 -2 13 -5z m-44 -26 c-7 -8 -26
-11 -48 -8 l-36 5 30 7 c52 12 67 11 54 -4z m94 6 c-7 -2 -21 -2 -30 0 -10 3
-4 5 12 5 17 0 24 -2 18 -5z m-189 -12 c3 -4 -6 -6 -19 -3 -14 2 -25 6 -25 8
0 8 39 4 44 -5z m151 -1 c13 -6 15 -9 5 -9 -8 0 -22 4 -30 9 -18 12 -2 12 25
0z m4283 -7 c-10 -2 -18 -9 -18 -15 0 -6 -3 -9 -6 -5 -10 10 6 27 24 26 15 -1
15 -2 0 -6z m-4691 -39 c-3 -3 -12 -4 -19 -1 -8 3 -5 6 6 6 11 1 17 -2 13 -5z
m-74 -21 c-7 -2 -19 -2 -25 0 -7 3 -2 5 12 5 14 0 19 -2 13 -5z m78 -7 c-13
-6 -29 -5 -43 1 -20 9 -17 10 20 9 35 -1 39 -2 23 -10z m-121 0 c0 -2 -7 -7
-16 -10 -8 -3 -12 -2 -9 4 6 10 25 14 25 6z m57 -12 c-3 -3 -12 -4 -19 -1 -8
3 -5 6 6 6 11 1 17 -2 13 -5z m4819 -48 c0 -19 -4 -32 -8 -30 -4 3 -8 18 -8
35 0 16 4 29 8 29 4 0 8 -15 8 -34z m-5056 20 c0 -2 -9 -6 -20 -9 -11 -3 -18
-1 -14 4 5 9 34 13 34 5z m-87 -13 c-7 -2 -19 -2 -25 0 -7 3 -2 5 12 5 14 0
19 -2 13 -5z m5167 -13 c0 -5 -2 -10 -4 -10 -3 0 -8 5 -11 10 -3 6 -1 10 4 10
6 0 11 -4 11 -10z m-5256 -9 c7 -11 -53 -21 -74 -12 -9 3 -2 8 20 12 19 4 38
7 42 8 4 0 9 -3 12 -8z m81 -1 c-11 -5 -29 -8 -40 -8 -16 0 -15 2 5 8 34 11
60 11 35 0z m95 0 c0 -5 -4 -10 -10 -10 -5 0 -10 5 -10 10 0 6 5 10 10 10 6 0
10 -4 10 -10z m5090 -50 c0 -5 -7 -10 -15 -10 -8 0 -15 5 -15 10 0 6 7 10 15
10 8 0 15 -4 15 -10z m-5560 -20 c11 -7 5 -8 -20 -4 -43 8 -51 14 -19 14 13 0
31 -5 39 -10z m5 -19 c12 -5 -6 -8 -45 -7 -43 0 -57 2 -40 7 33 9 61 9 85 0z
m5605 -62 c0 -5 -4 -9 -10 -9 -5 0 -10 7 -10 16 0 8 5 12 10 9 6 -3 10 -10 10
-16z m-5921 2 c21 -6 19 -7 -18 -17 -22 -6 -41 -7 -41 -3 0 5 -10 9 -22 9 -19
0 -20 -2 -8 -11 10 -7 11 -9 2 -7 -25 6 -17 23 13 29 38 8 45 8 74 0z m61 -1
c0 -5 -4 -10 -10 -10 -5 0 -10 5 -10 10 0 6 5 10 10 10 6 0 10 -4 10 -10z
m-193 -26 c-3 -3 -12 -4 -19 -1 -8 3 -5 6 6 6 11 1 17 -2 13 -5z m160 0 c-3
-3 -12 -4 -19 -1 -8 3 -5 6 6 6 11 1 17 -2 13 -5z m5910 -9 c9 -25 -4 -29 -17
-6 -7 15 -7 21 0 21 6 0 13 -7 17 -15z m-8 -85 c1 -13 0 -13 -9 0 -5 8 -9 24
-9 35 l0 20 9 -20 c5 -11 9 -27 9 -35z m18 18 c-3 -7 -5 -2 -5 12 0 14 2 19 5
13 2 -7 2 -19 0 -25z m-6280 -4 c-3 -3 -12 -4 -19 -1 -8 3 -5 6 6 6 11 1 17
-2 13 -5z m-171 -60 c1 -14 -6 -19 -27 -20 -16 -1 -26 3 -23 7 3 5 14 9 25 9
20 0 26 15 9 23 -6 3 -5 4 2 3 7 -1 13 -11 14 -22z m6457 11 c4 -8 2 -17 -3
-20 -6 -4 -10 3 -10 14 0 25 6 27 13 6z m-6533 -20 c-14 -8 -29 -14 -35 -14
-5 0 1 6 15 14 14 8 30 14 35 14 6 0 -1 -6 -15 -14z m-80 -29 c0 -2 -7 -7 -16
-10 -8 -3 -12 -2 -9 4 6 10 25 14 25 6z m-77 -41 c-3 -9 -8 -14 -10 -11 -3 3
-2 9 2 15 9 16 15 13 8 -4z m65 -4 c11 -7 11 -9 -1 -14 -20 -8 -58 3 -51 14 7
11 35 11 52 0z m6659 -13 c-3 -8 -6 -5 -6 6 -1 11 2 17 5 13 3 -3 4 -12 1 -19z
m-6807 -80 c0 -6 -7 -5 -15 2 -8 7 -15 17 -15 22 0 6 7 5 15 -2 8 -7 15 -17
15 -22z m6827 -80 c-3 -8 -6 -5 -6 6 -1 11 2 17 5 13 3 -3 4 -12 1 -19z m-20
-40 c-3 -7 -5 -2 -5 12 0 14 2 19 5 13 2 -7 2 -19 0 -25z m-6907 -4 c0 -8 -4
-12 -10 -9 -5 3 -10 10 -10 16 0 5 5 9 10 9 6 0 10 -7 10 -16z m17 -24 c-1
-21 -4 -35 -8 -29 -3 6 -10 10 -15 9 -5 -1 -10 4 -12 12 -2 8 0 8 7 -2 8 -12
12 -9 17 18 9 43 13 40 11 -8z m6893 -50 c-6 -42 -8 -47 -9 -20 -1 34 8 84 14
78 2 -2 0 -28 -5 -58z m17 -92 c-2 -18 -4 -4 -4 32 0 36 2 50 4 33 2 -18 2
-48 0 -65z m-6917 78 c0 -3 -4 -8 -10 -11 -5 -3 -10 -1 -10 4 0 6 5 11 10 11
6 0 10 -2 10 -4z m45 -26 c-3 -5 -12 -10 -18 -10 -7 0 -6 4 3 10 19 12 23 12
15 0z m56 -24 c-7 -8 -22 -11 -38 -8 -25 5 -25 6 -8 13 11 4 28 8 39 8 14 1
16 -2 7 -13z m1456 8 c-3 -3 -12 -4 -19 -1 -8 3 -5 6 6 6 11 1 17 -2 13 -5z
m232 -5 l-24 -7 24 -1 c14 -1 39 4 56 10 20 8 49 9 81 4 l49 -8 -40 -9 c-42
-10 -209 -4 -258 10 -19 5 -1 7 54 7 45 0 71 -3 58 -6z m378 5 c-3 -3 -12 -4
-19 -1 -8 3 -5 6 6 6 11 1 17 -2 13 -5z m131 -1 c-10 -2 -28 -2 -40 0 -13 2
-5 4 17 4 22 1 32 -1 23 -4z m-670 -10 c-10 -2 -28 -2 -40 0 -13 2 -5 4 17 4
22 1 32 -1 23 -4z m445 0 c-13 -2 -33 -2 -45 0 -13 2 -3 4 22 4 25 0 35 -2 23
-4z m-1998 -23 c3 -5 2 -10 -4 -10 -5 0 -13 5 -16 10 -3 6 -2 10 4 10 5 0 13
-4 16 -10z m1360 0 c18 -8 17 -9 -7 -9 -16 -1 -28 4 -28 9 0 12 8 12 35 0z
m99 2 c3 -5 -8 -6 -25 -4 -16 2 -29 6 -29 8 0 8 49 4 54 -4z m139 1 c-13 -2
-35 -2 -50 0 -16 2 -5 4 22 4 28 0 40 -2 28 -4z m1452 -33 c-3 -5 -11 -10 -16
-10 -6 0 -7 5 -4 10 3 6 11 10 16 10 6 0 7 -4 4 -10z m-2722 -17 c-7 -2 -21
-2 -30 0 -10 3 -4 5 12 5 17 0 24 -2 18 -5z m122 -3 c14 -6 0 -8 -45 -8 -58 1
-61 2 -25 8 22 4 42 7 45 8 3 0 14 -3 25 -8z m75 0 c12 -8 11 -10 -7 -10 -13
0 -23 5 -23 10 0 13 11 13 30 0z m130 -7 c2 -2 -13 -3 -34 -1 -20 1 -40 6 -43
11 -5 8 67 -1 77 -10z m180 11 c-35 -7 -98 -9 -94 -2 3 5 29 7 57 7 29 -1 45
-3 37 -5z m5997 -16 c-3 -8 -6 -5 -6 6 -1 11 2 17 5 13 3 -3 4 -12 1 -19z
m-5912 1 c-22 -4 -62 -7 -90 -7 l-50 1 45 7 c25 4 65 7 90 7 l45 1 -40 -9z
m82 5 c-3 -3 -12 -4 -19 -1 -8 3 -5 6 6 6 11 1 17 -2 13 -5z m-674 -11 c-7 -2
-21 -2 -30 0 -10 3 -4 5 12 5 17 0 24 -2 18 -5z m130 -10 c-7 -2 -21 -2 -30 0
-10 3 -4 5 12 5 17 0 24 -2 18 -5z m115 0 c-15 -2 -42 -2 -60 0 -18 2 -6 4 27
4 33 0 48 -2 33 -4z m6249 -35 c-3 -7 -5 -2 -5 12 0 14 2 19 5 13 2 -7 2 -19
0 -25z m-3922 13 c3 -5 0 -13 -6 -17 -8 -5 -9 -3 -4 6 8 13 0 13 -50 -5 -13
-4 -12 -1 5 9 29 18 46 20 55 7z m3942 -13 c-3 -8 -6 -5 -6 6 -1 11 2 17 5 13
3 -3 4 -12 1 -19z m-3900 -4 c-3 -3 -12 -4 -19 -1 -8 3 -5 6 6 6 11 1 17 -2
13 -5z m-193 -49 c15 -11 17 -18 9 -26 -12 -12 -36 -3 -28 11 3 5 -3 13 -12
19 -14 8 -15 10 -3 10 8 0 24 -6 34 -14z m-37 -9 c1 -1 -13 -6 -32 -12 -19 -6
-32 -7 -29 -2 3 4 -1 8 -8 8 -9 0 -9 3 2 10 11 7 54 5 67 -4z m-90 -12 c-3 -3
-12 -4 -19 -1 -8 3 -5 6 6 6 11 1 17 -2 13 -5z m-197 -64 c-12 -8 -12 -10 -1
-10 8 0 12 -2 9 -5 -3 -3 -13 -2 -22 1 -14 5 -15 9 -4 15 7 5 18 9 23 9 6 0 3
-5 -5 -10z m47 -6 c-3 -3 -12 -4 -19 -1 -8 3 -5 6 6 6 11 1 17 -2 13 -5z m38
-14 c3 -5 1 -10 -4 -10 -6 0 -11 5 -11 10 0 6 2 10 4 10 3 0 8 -4 11 -10z
m-239 -51 c-16 -4 -35 -5 -43 -1 -7 5 5 8 30 9 38 1 39 0 13 -8z m-53 -10 c7
0 1 -5 -12 -10 -13 -5 -26 -7 -29 -4 -3 3 1 5 9 5 12 0 11 2 -1 11 -12 9 -12
10 3 5 10 -3 24 -6 30 -7z m-58 -9 c4 -6 -9 -10 -32 -9 -34 1 -35 2 -13 9 35
11 38 11 45 0z m95 -10 c0 -5 -12 -10 -27 -9 l-28 1 25 8 c14 4 26 8 28 9 1 1
2 -3 2 -9z m4527 -57 c-3 -10 -5 -2 -5 17 0 19 2 27 5 18 2 -10 2 -26 0 -35z
m-4787 17 c0 -5 -4 -10 -10 -10 -5 0 -10 5 -10 10 0 6 5 10 10 10 6 0 10 -4
10 -10z m-55 -10 c-3 -5 2 -10 12 -11 27 -1 -48 -28 -77 -27 -15 0 -6 4 20 10
25 6 39 13 31 16 -11 4 -11 6 0 13 18 11 22 11 14 -1z m4824 -86 c1 -5 -5 -18
-11 -27 -12 -16 -13 -15 -15 9 -1 20 1 24 9 13 6 -10 7 -3 4 21 -5 26 -4 30 3
15 5 -11 10 -25 10 -31z m18 4 c-3 -7 -5 -2 -5 12 0 14 2 19 5 13 2 -7 2 -19
0 -25z m-5050 6 c-3 -3 -12 -4 -19 -1 -8 3 -5 6 6 6 11 1 17 -2 13 -5z m-60
-10 c-3 -3 -12 -4 -19 -1 -8 3 -5 6 6 6 11 1 17 -2 13 -5z m-62 -19 c-16 -8
-37 -14 -45 -14 -8 0 1 7 20 14 46 18 64 17 25 0z m138 4 c-14 -13 -78 -14
-70 -1 3 4 21 7 41 8 20 0 33 -3 29 -7z m5005 -89 c-6 -23 -12 -39 -15 -37 -7
8 9 87 17 82 4 -3 3 -23 -2 -45z m-5303 30 c-3 -5 -15 -10 -26 -10 -11 0 -17
5 -14 10 3 6 15 10 26 10 11 0 17 -4 14 -10z m19 -25 c3 -9 0 -15 -9 -15 -9 0
-12 6 -9 15 4 8 7 15 9 15 2 0 5 -7 9 -15z m-117 -1 c-3 -3 -12 -4 -19 -1 -8
3 -5 6 6 6 11 1 17 -2 13 -5z m66 -1 c-7 -2 -19 -2 -25 0 -7 3 -2 5 12 5 14 0
19 -2 13 -5z m-203 -38 c0 -6 -73 -25 -78 -20 -2 2 11 8 29 14 41 11 49 12 49
6z m-1 -29 c-2 -2 -15 -7 -29 -10 l-25 -7 25 15 c21 12 42 14 29 2z m-104 -6
c-3 -5 -14 -10 -23 -10 -15 0 -15 2 -2 10 20 13 33 13 25 0z m-65 -10 c-8 -5
-19 -10 -25 -10 -5 0 -3 5 5 10 8 5 20 10 25 10 6 0 3 -5 -5 -10z m5644 -25
c-4 -8 -8 -15 -10 -15 -2 0 -4 7 -4 15 0 8 4 15 10 15 5 0 7 -7 4 -15z m23 -7
c-3 -8 -6 -5 -6 6 -1 11 2 17 5 13 3 -3 4 -12 1 -19z m-5742 -27 c-4 -15 -14
-21 -33 -20 l-27 1 28 11 c15 6 27 17 27 26 0 8 3 12 6 8 3 -3 3 -15 -1 -26z
m-38 13 c-3 -3 -12 -4 -19 -1 -8 3 -5 6 6 6 11 1 17 -2 13 -5z m5744 -18 c5 3
7 -10 5 -31 -6 -46 -16 -58 -16 -19 0 16 -2 38 -4 49 -2 11 -1 14 1 7 3 -7 9
-10 14 -6z m-5804 8 c-3 -3 -12 -4 -19 -1 -8 3 -5 6 6 6 11 1 17 -2 13 -5z m0
-30 c-3 -3 -12 -4 -19 -1 -8 3 -5 6 6 6 11 1 17 -2 13 -5z m-220 -40 c-3 -3
-12 -4 -19 -1 -8 3 -5 6 6 6 11 1 17 -2 13 -5z m53 -9 c0 -8 -4 -15 -10 -15
-5 0 -10 7 -10 15 0 8 5 15 10 15 6 0 10 -7 10 -15z m-40 -26 c0 -5 -4 -9 -8
-9 -5 0 -9 7 -9 15 0 8 4 12 9 9 4 -3 8 -9 8 -15z m5997 -21 c-3 -8 -6 -5 -6
6 -1 11 2 17 5 13 3 -3 4 -12 1 -19z m-6303 -43 c-10 -8 -26 -14 -34 -14 -9 0
-4 6 10 14 33 19 49 19 24 0z m87 -12 c-12 -20 -14 -14 -5 12 4 9 9 14 11 11
3 -2 0 -13 -6 -23z m-41 7 c-8 -5 -22 -9 -30 -9 -10 0 -8 3 5 9 27 12 43 12
25 0z m6217 -42 c-3 -8 -6 -5 -6 6 -1 11 2 17 5 13 3 -3 4 -12 1 -19z m-6370
6 c-3 -3 -12 -4 -19 -1 -8 3 -5 6 6 6 11 1 17 -2 13 -5z m6352 -49 c-12 -12
-14 -10 -15 15 -1 25 1 27 14 14 13 -13 13 -17 1 -29z m-6409 12 c12 -4 11 -6
-2 -6 -10 -1 -18 -5 -18 -11 0 -5 -12 -10 -27 -9 l-28 1 27 9 c19 7 25 15 21
27 -3 11 -2 13 4 6 4 -6 15 -14 23 -17z m55 13 c-3 -5 -14 -10 -23 -10 -15 0
-15 2 -2 10 20 13 33 13 25 0z m-10 -30 c-11 -5 -27 -9 -35 -9 -9 0 -8 4 5 9
11 5 27 9 35 9 9 0 8 -4 -5 -9z m3112 -30 c7 -8 12 -22 12 -30 0 -9 -5 -6 -11
8 -6 12 -20 22 -32 22 -12 0 -28 5 -36 11 -11 7 -6 9 20 7 19 -2 40 -10 47
-18z m-117 0 c-21 -7 -16 -8 25 -11 41 -2 44 -3 16 -6 -46 -6 -90 5 -70 18 7
5 23 8 34 8 16 -1 16 -2 -5 -9z m-3240 -14 c0 -3 -4 -8 -10 -11 -5 -3 -10 -1
-10 4 0 6 5 11 10 11 6 0 10 -2 10 -4z m3173 -13 c-7 -2 -19 -2 -25 0 -7 3 -2
5 12 5 14 0 19 -2 13 -5z m-3153 -12 c0 -13 -21 -19 -45 -12 -18 4 -18 6 5 12
36 10 40 10 40 0z m-86 -10 c4 -5 -3 -7 -14 -4 -23 6 -26 13 -6 13 8 0 17 -4
20 -9z m3035 -27 c9 -8 -45 -2 -64 6 -14 7 -8 8 20 3 22 -3 42 -7 44 -9z
m3580 -1 c0 -11 -3 -13 -6 -5 -7 18 -23 15 -23 -5 0 -9 -3 -14 -6 -10 -11 10
4 37 21 37 8 0 15 -8 14 -17z m-3739 -3 c12 -8 9 -10 -12 -10 -16 0 -28 5 -28
10 0 13 20 13 40 0z m53 3 c-7 -2 -19 -2 -25 0 -7 3 -2 5 12 5 14 0 19 -2 13
-5z m44 -9 c-3 -3 -12 -4 -19 -1 -8 3 -5 6 6 6 11 1 17 -2 13 -5z m-52 -14
c-27 -12 -43 -12 -25 0 8 5 22 9 30 9 10 0 8 -3 -5 -9z m-3048 -27 c-7 -6 -46
10 -41 18 3 5 14 3 24 -3 11 -7 18 -13 17 -15z m6733 17 c0 -5 -5 -10 -11 -10
-5 0 -7 5 -4 10 3 6 8 10 11 10 2 0 4 -4 4 -10z m-3195 -10 c13 -6 15 -9 5 -9
-8 0 -22 4 -30 9 -18 12 -2 12 25 0z m3168 -10 c3 -11 1 -18 -4 -14 -5 3 -9
12 -9 20 0 20 7 17 13 -6z m-6743 0 c11 -7 4 -10 -25 -9 -31 0 -36 2 -20 9 26
11 28 11 45 0z m77 -6 c-3 -3 -12 -4 -19 -1 -8 3 -5 6 6 6 11 1 17 -2 13 -5z
m2761 -15 c9 0 2 -5 -17 -10 -18 -6 -36 -8 -39 -5 -3 3 3 6 14 6 16 0 17 2 4
11 -12 9 -12 10 3 5 10 -3 26 -6 35 -7z m-2908 -9 c0 -5 -5 -10 -11 -10 -5 0
-7 5 -4 10 3 6 8 10 11 10 2 0 4 -4 4 -10z m2805 0 c-3 -5 -14 -10 -23 -9 -14
0 -13 2 3 9 27 11 27 11 20 0z m32 -16 c-3 -3 -12 -4 -19 -1 -8 3 -5 6 6 6 11
1 17 -2 13 -5z m673 -19 c-7 -8 -18 -15 -24 -15 -6 0 -2 7 8 15 25 19 32 19
16 0z m-3526 -10 c11 -8 15 -15 10 -15 -6 0 -19 7 -30 15 -10 8 -14 14 -9 14
6 0 19 -6 29 -14z m-84 1 c0 -2 -7 -7 -16 -10 -8 -3 -12 -2 -9 4 6 10 25 14
25 6z m2593 -23 c-13 -2 -33 -2 -45 0 -13 2 -3 4 22 4 25 0 35 -2 23 -4z m124
1 c-3 -3 -12 -4 -19 -1 -8 3 -5 6 6 6 11 1 17 -2 13 -5z m4163 2 c0 -3 -4 -8
-10 -11 -5 -3 -10 -1 -10 4 0 6 5 11 10 11 6 0 10 -2 10 -4z m-4210 -16 c-8
-5 -19 -10 -25 -10 -5 0 -3 5 5 10 8 5 20 10 25 10 6 0 3 -5 -5 -10z m4163 -5
c-3 -9 -8 -14 -10 -11 -3 3 -2 9 2 15 9 16 15 13 8 -4z m11 -30 c-9 -14 -18
-25 -20 -25 -2 0 2 11 8 25 6 14 15 25 20 25 5 0 1 -11 -8 -25z m-4314 5 c-8
-5 -19 -10 -25 -10 -5 0 -3 5 5 10 8 5 20 10 25 10 6 0 3 -5 -5 -10z m981 -11
l24 -20 -25 7 c-13 4 -30 13 -38 20 -23 23 12 17 39 -7z m-3615 0 c4 -8 -1 -9
-16 -4 -15 5 -20 3 -16 -3 3 -6 2 -13 -3 -16 -7 -5 -8 11 -2 32 3 7 31 0 37
-9z m2299 -29 c-12 -5 -14 -9 -6 -9 8 -1 12 -4 8 -7 -8 -8 -47 5 -47 17 0 5
15 9 33 8 27 0 29 -2 12 -9z m155 0 c13 -8 13 -10 -2 -10 -9 0 -20 5 -23 10
-8 13 5 13 25 0z m4466 -1 c4 -8 0 -9 -15 -4 -12 3 -21 2 -21 -3 0 -6 5 -12
10 -14 7 -2 5 -11 -4 -23 -13 -18 -14 -17 -11 15 2 19 3 36 4 38 3 7 31 0 37
-9z m-56 -34 c0 -5 -5 -3 -10 5 -5 8 -10 20 -10 25 0 6 5 3 10 -5 5 -8 10 -19
10 -25z m-4457 18 c-7 -2 -19 -2 -25 0 -7 3 -2 5 12 5 14 0 19 -2 13 -5z
m1073 -17 c0 -13 -4 -22 -8 -20 -4 3 -17 0 -28 -6 -15 -8 -25 -8 -38 0 -16 11
-16 11 1 6 21 -7 47 2 47 16 0 6 -7 7 -16 4 -9 -3 -12 -2 -9 5 4 5 15 7 26 4
11 -4 19 -2 19 4 0 6 2 11 4 11 2 0 3 -11 2 -24z m-3609 -4 c-10 -10 -15 -21
-13 -23 2 -2 -7 -5 -21 -5 -23 -2 -23 -1 9 22 40 28 46 30 25 6z m2460 2 c-3
-3 -12 -4 -19 -1 -8 3 -5 6 6 6 11 1 17 -2 13 -5z m4526 -51 c-3 -9 -8 -11
-12 -5 -3 6 -17 12 -31 15 -25 4 -25 4 3 6 15 0 27 7 27 14 0 8 3 8 9 -2 5 -8
7 -21 4 -28z m-4870 10 c-7 -2 -19 -2 -25 0 -7 3 -2 5 12 5 14 0 19 -2 13 -5z
m58 -10 c-19 -4 -21 -7 -10 -15 11 -8 10 -9 -4 -4 -10 3 -31 7 -45 7 -23 1
-22 3 8 9 19 4 44 7 55 7 14 0 13 -1 -4 -4z m96 1 c-3 -3 -12 -4 -19 -1 -8 3
-5 6 6 6 11 1 17 -2 13 -5z m4688 -25 c-4 -5 -13 -9 -21 -9 -9 0 -14 -7 -12
-17 1 -10 -5 -28 -14 -41 l-16 -24 2 25 c0 14 5 23 10 19 5 -3 6 2 3 12 -5 12
0 24 15 36 23 18 44 17 33 -1z m-7031 3 c2 -4 -4 -8 -14 -8 -10 0 -16 4 -14 8
3 4 9 8 14 8 5 0 11 -4 14 -8z m2106 -12 c0 -5 -4 -10 -10 -10 -5 0 -10 5 -10
10 0 6 5 10 10 10 6 0 10 -4 10 -10z m1408 -16 c11 4 23 3 26 -3 5 -8 -12 -9
-74 -2 -13 1 -13 2 0 11 9 6 17 5 21 -2 4 -5 16 -7 27 -4z m-3528 -4 c-20 -13
-33 -13 -25 0 3 6 14 10 23 10 15 0 15 -2 2 -10z m1908 -17 c-10 -2 -28 -2
-40 0 -13 2 -5 4 17 4 22 1 32 -1 23 -4z m152 3 c0 -2 -11 -6 -25 -8 -13 -3
-22 -1 -19 3 5 9 44 13 44 5z m-223 -12 c-3 -3 -12 -4 -19 -1 -8 3 -5 6 6 6
11 1 17 -2 13 -5z m1579 -20 c-11 -7 -22 -12 -25 -9 -2 3 4 12 15 19 10 8 21
12 24 9 3 -2 -4 -11 -14 -19z m-3480 -13 c-1 -29 -16 -33 -16 -5 0 8 -5 12
-11 9 -6 -4 -8 -14 -4 -24 5 -12 4 -13 -6 -4 -10 10 -9 15 1 27 7 9 16 13 21
10 5 -3 9 0 9 5 0 6 2 11 4 11 2 0 3 -13 2 -29z m1924 10 c0 -5 -13 -11 -30
-13 -36 -5 -39 -1 -7 12 29 12 37 12 37 1z m1541 -21 c10 0 19 -4 19 -9 0 -10
-58 3 -69 15 -3 4 2 4 12 1 10 -4 27 -7 38 -7z m-51 -10 c8 -5 11 -10 5 -10
-5 0 -17 5 -25 10 -8 5 -10 10 -5 10 6 0 17 -5 25 -10z m-1731 -17 c20 -3 22
-6 10 -14 -19 -12 -32 -11 -24 1 6 10 -5 10 -115 -3 -19 -3 -26 -2 -15 0 11 3
24 8 28 13 9 8 79 11 116 3z m1677 -22 c0 -16 -3 -17 -14 -9 -12 10 -7 19 13
28 1 0 1 -9 1 -19z m3634 5 c0 -2 -7 -9 -15 -16 -13 -11 -14 -10 -9 4 5 14 24
23 24 12z m-7056 -56 c7 0 16 -12 19 -27 l5 -28 -28 32 c-16 17 -31 29 -33 26
-3 -3 -3 5 0 18 l6 23 8 -22 c5 -12 15 -22 23 -22z m1553 34 c-3 -3 -12 -4
-19 -1 -8 3 -5 6 6 6 11 1 17 -2 13 -5z m1850 -19 c4 -12 -72 -13 -84 -2 -4 5
1 5 11 1 12 -4 17 -4 13 2 -3 5 8 10 25 9 17 0 33 -4 35 -10z m-2292 -25 c3
-6 -1 -7 -9 -4 -18 7 -21 14 -7 14 6 0 13 -4 16 -10z m100 -5 c-49 -18 -49
-18 -33 0 7 8 27 14 43 14 29 0 28 0 -10 -14z m89 6 c11 -4 15 -10 10 -13 -5
-4 -18 0 -29 8 -20 15 -12 17 19 5z m63 3 c-3 -3 -12 -4 -19 -1 -8 3 -5 6 6 6
11 1 17 -2 13 -5z m5631 -12 c-9 -11 -13 -11 -20 0 -6 10 -10 10 -18 -2 -5 -8
-10 -10 -10 -4 0 17 9 22 35 20 18 -1 21 -4 13 -14z m-3728 4 c0 -2 -7 -7 -16
-10 -8 -3 -12 -2 -9 4 6 10 25 14 25 6z m-3286 -22 c9 -24 2 -26 -12 -4 -7 11
-8 20 -3 20 5 0 12 -7 15 -16z m1081 -14 c-3 -5 -13 -10 -21 -10 -8 0 -14 5
-14 10 0 6 9 10 21 10 11 0 17 -4 14 -10z m5897 -12 c-7 -7 -12 -8 -12 -2 0
14 12 26 19 19 2 -3 -1 -11 -7 -17z m-3737 2 c-3 -5 2 -10 11 -10 10 0 15 -3
11 -6 -9 -9 -48 6 -42 17 4 5 11 9 16 9 6 0 7 -4 4 -10z m-40 -10 c-3 -5 -14
-10 -23 -9 -14 0 -13 2 3 9 27 11 27 11 20 0z m-2958 -16 c-3 -3 -12 -4 -19
-1 -8 3 -5 6 6 6 11 1 17 -2 13 -5z m162 -10 c9 -8 -75 -2 -94 6 -12 5 1 6 35
3 30 -3 57 -7 59 -9z m124 9 c-7 -2 -21 -2 -30 0 -10 3 -4 5 12 5 17 0 24 -2
18 -5z m314 1 c-3 -3 -12 -4 -19 -1 -8 3 -5 6 6 6 11 1 17 -2 13 -5z m6068
-10 c13 -14 14 -19 3 -25 -19 -13 -36 -11 -18 2 11 8 12 12 3 16 -7 2 -13 9
-13 14 0 13 6 11 25 -7z m-6775 2 c0 -8 -51 -13 -56 -5 -3 5 9 9 25 9 17 0 31
-2 31 -4z m463 -3 c-7 -2 -19 -2 -25 0 -7 3 -2 5 12 5 14 0 19 -2 13 -5z m307
3 c0 -2 -7 -7 -16 -10 -8 -3 -12 -2 -9 4 6 10 25 14 25 6z m-197 -23 c-13 -2
-33 -2 -45 0 -13 2 -3 4 22 4 25 0 35 -2 23 -4z m-470 -10 c-7 -2 -19 -2 -25
0 -7 3 -2 5 12 5 14 0 19 -2 13 -5z m194 1 c-3 -3 -12 -4 -19 -1 -8 3 -5 6 6
6 11 1 17 -2 13 -5z m130 0 c-3 -3 -12 -4 -19 -1 -8 3 -5 6 6 6 11 1 17 -2 13
-5z m2513 -28 c-8 -8 -13 -7 -20 4 -8 12 -10 13 -10 1 0 -8 -3 -12 -6 -8 -12
11 6 25 27 20 15 -4 17 -9 9 -17z m3774 -24 c-13 -13 -17 -13 -29 -1 -12 12
-10 14 15 15 25 1 27 -1 14 -14z m-19 -30 c-3 -3 -11 0 -18 7 -9 10 -8 11 6 5
10 -3 15 -9 12 -12z m-3900 -22 c-27 -12 -43 -12 -25 0 8 5 22 9 30 9 10 0 8
-3 -5 -9z m-55 -19 c0 -5 -9 -19 -20 -32 l-21 -24 16 33 c15 31 25 41 25 23z
m3880 -6 c10 -13 11 -18 1 -28 -10 -9 -11 -8 -6 6 4 9 3 17 -3 17 -6 0 -12 -6
-15 -12 -3 -7 -4 -3 -4 10 1 26 10 28 27 7z m-3957 -57 c-2 -5 -12 -8 -21 -7
-10 0 -12 3 -5 5 7 3 9 13 6 22 -6 14 -5 15 9 2 9 -8 14 -18 11 -22z m3867
-18 c0 -5 -4 -10 -10 -10 -5 0 -10 5 -10 10 0 6 5 10 10 10 6 0 10 -4 10 -10z
m-3974 -36 c18 -14 18 -15 -4 -4 -13 6 -30 9 -38 6 -9 -3 -12 -1 -9 4 9 14 28
12 51 -6z m-11 -26 c2 -2 -11 -4 -30 -5 -19 -1 -37 3 -40 7 -5 8 62 7 70 -2z
m2155 -18 c8 -5 11 -10 5 -10 -5 0 -17 5 -25 10 -8 5 -10 10 -5 10 6 0 17 -5
25 -10z m57 4 c-3 -3 -12 -4 -19 -1 -8 3 -5 6 6 6 11 1 17 -2 13 -5z m57 -11
c4 -9 0 -23 -9 -32 -15 -15 -16 -13 -9 14 5 25 4 28 -7 18 -18 -18 -34 -16
-19 2 16 20 36 19 44 -2z m-2396 -5 c-3 -7 -13 -15 -24 -17 -16 -3 -17 -1 -5
13 16 19 34 21 29 4z m2262 -8 c11 -8 7 -9 -15 -4 -37 8 -45 14 -19 14 10 0
26 -5 34 -10z m-2344 -35 c-36 -19 -47 -19 -22 0 11 8 27 15 35 15 9 0 3 -7
-13 -15z m2491 -7 c-3 -8 -6 -5 -6 6 -1 11 2 17 5 13 3 -3 4 -12 1 -19z m1554
-13 c8 5 3 -3 -9 -17 -23 -26 -62 -43 -62 -29 0 4 12 14 28 21 15 7 22 15 14
17 -6 3 -9 9 -6 15 4 7 9 6 14 -2 5 -7 13 -9 21 -5z m-2004 -1 c-3 -3 -12 -4
-19 -1 -8 3 -5 6 6 6 11 1 17 -2 13 -5z m126 -1 c3 -5 -9 -9 -26 -9 -18 -1
-43 -4 -57 -7 -14 -2 -17 -2 -7 0 9 2 15 9 12 14 -4 5 12 9 34 9 22 0 42 -3
44 -7z m1817 -3 c8 -5 12 -11 10 -14 -3 -2 -14 2 -24 10 -22 15 -10 19 14 4z
m-1491 -60 c0 -10 -3 -8 -9 5 -12 27 -12 43 0 25 5 -8 9 -22 9 -30z m1457 14
c-8 -8 -20 -14 -27 -14 -8 0 -5 7 7 19 10 10 22 16 27 14 4 -2 1 -11 -7 -19z
m-1881 6 c-28 -12 -37 -12 -30 0 3 6 16 10 28 9 21 0 21 -1 2 -9z m399 -30
c-6 -5 -24 21 -24 34 0 6 6 1 14 -10 8 -10 12 -21 10 -24z m-2612 23 c-6 -2
-10 -8 -8 -11 2 -4 -7 -8 -20 -8 -13 -1 -24 0 -24 2 0 6 42 23 55 23 6 -1 4
-3 -3 -6z m45 -9 c-3 -3 -12 -4 -19 -1 -8 3 -5 6 6 6 11 1 17 -2 13 -5z m2529
-6 c4 -7 3 -8 -4 -4 -7 4 -12 2 -12 -5 0 -7 -3 -10 -6 -6 -6 5 3 27 11 27 2 0
7 -5 11 -12z m-496 -17 c0 -4 -11 -6 -25 -3 -14 2 -25 6 -25 8 0 2 11 4 25 4
14 0 25 -4 25 -9z m1986 0 c-4 -5 0 -12 6 -14 7 -3 3 -6 -9 -6 -25 -1 -31 14
-10 22 18 8 19 8 13 -2z m-4151 -11 c-3 -5 -16 -15 -28 -21 -21 -10 -21 -9 2
10 25 23 36 27 26 11z m2092 -5 c0 -5 -19 -10 -42 -10 -32 0 -39 2 -31 12 13
14 73 13 73 -2z m513 -10 c-14 -17 -30 -20 -30 -6 0 5 8 12 18 14 9 3 19 5 21
6 2 0 -2 -6 -9 -14z m1519 -4 c7 -5 9 -11 5 -14 -5 -3 -15 1 -22 9 -14 16 -5
18 17 5z m-2064 -11 c-3 -5 -14 -10 -23 -10 -15 0 -15 2 -2 10 20 13 33 13 25
0z m585 0 c0 -5 -4 -10 -10 -10 -5 0 -10 5 -10 10 0 6 5 10 10 10 6 0 10 -4
10 -10z m-2701 -4 c-2 -2 -15 -9 -29 -15 -24 -11 -24 -11 -6 3 16 13 49 24 35
12z m55 -15 c4 -5 -3 -7 -14 -4 -23 6 -26 13 -6 13 8 0 17 -4 20 -9z m2616 5
c0 -11 -19 -15 -25 -6 -3 5 1 10 9 10 9 0 16 -2 16 -4z m-810 -27 c0 -7 12 -9
33 -6 17 3 27 3 20 1 -7 -3 -10 -11 -7 -18 4 -9 -6 -15 -28 -19 -44 -6 -48 0
-7 12 22 6 27 10 14 10 -11 1 -29 8 -39 16 -17 13 -18 15 -3 15 9 0 17 -5 17
-11z m107 5 c-3 -3 -12 -4 -19 -1 -8 3 -5 6 6 6 11 1 17 -2 13 -5z m2126 -6
c-13 -6 -23 -15 -23 -20 0 -10 13 -11 26 0 5 4 4 0 -3 -8 -10 -11 -15 -12 -25
-1 -11 10 -9 15 6 27 11 8 25 14 30 13 6 0 1 -5 -11 -11z m-4223 -28 c-8 -5
-19 -10 -25 -10 -5 0 -3 5 5 10 8 5 20 10 25 10 6 0 3 -5 -5 -10z m-10 -26 c0
-2 -11 -3 -24 -2 -14 1 -23 5 -20 9 4 7 44 0 44 -7z m2614 -9 c-10 -8 -23 -14
-29 -14 -5 -1 1 8 15 19 14 10 27 17 29 14 3 -2 -4 -11 -15 -19z m55 11 c10
-12 8 -13 -8 -9 -12 3 -18 9 -15 14 7 12 10 11 23 -5z m-2629 -6 c0 -5 -8 -10
-17 -10 -15 0 -16 2 -3 10 19 12 20 12 20 0z m4093 -11 c-6 -6 -9 -17 -7 -24
3 -7 -8 -19 -25 -28 -29 -14 -29 -14 -18 4 7 11 18 17 24 14 7 -2 13 0 13 5 0
6 -5 10 -12 10 -6 0 -3 8 8 19 10 10 21 17 23 15 3 -3 0 -9 -6 -15z m-2368 -9
c-11 -5 -27 -9 -35 -9 -9 0 -8 4 5 9 11 5 27 9 35 9 9 0 8 -4 -5 -9z m98 3
c-7 -2 -19 -2 -25 0 -7 3 -2 5 12 5 14 0 19 -2 13 -5z m2224 1 c-3 -3 -12 -4
-19 -1 -8 3 -5 6 6 6 11 1 17 -2 13 -5z m-2277 -15 c-11 -8 -8 -9 15 -5 l30 6
-25 -14 c-18 -10 -27 -11 -32 -3 -8 14 -1 27 15 27 7 0 6 -4 -3 -11z m-23 -24
c1 -1 -14 -1 -33 -1 -32 0 -34 2 -18 13 14 10 21 10 33 1 9 -7 17 -13 18 -13z
m793 15 c0 -5 -5 -10 -11 -10 -5 0 -7 5 -4 10 3 6 8 10 11 10 2 0 4 -4 4 -10z
m-2704 -28 c1 -12 -3 -22 -8 -22 -6 0 -8 7 -4 15 3 8 1 15 -4 15 -6 0 -10 5
-10 11 0 21 25 2 26 -19z m4184 13 c-7 -9 -15 -13 -19 -10 -3 3 1 10 9 15 21
14 24 12 10 -5z m-4229 -12 c-9 -4 -10 -8 -2 -12 6 -4 -6 -7 -26 -7 l-37 0 30
13 c16 6 34 12 39 12 6 0 4 -3 -4 -6z m2739 -2 c0 -5 8 -11 18 -13 9 -2 -11
-3 -45 -3 -33 0 -59 4 -56 8 3 5 11 6 17 4 7 -3 19 -1 27 4 18 11 39 11 39 0z
m1483 -34 c-2 -4 -13 -5 -24 -2 -15 5 -17 3 -12 -12 6 -15 5 -16 -9 -3 -10 9
-12 17 -6 21 15 9 57 6 51 -4z m-2527 -6 c-3 -5 -15 -11 -26 -14 -17 -4 -19
-3 -9 9 12 15 44 20 35 5z m91 3 c-3 -3 -12 -4 -19 -1 -8 3 -5 6 6 6 11 1 17
-2 13 -5z m2383 -32 c0 -1 -9 2 -20 8 -11 6 -20 15 -20 20 0 6 9 2 20 -7 11
-10 20 -19 20 -21z m-2415 18 c3 -5 0 -7 -8 -4 -8 3 -18 1 -22 -5 -3 -6 -14
-11 -23 -11 -12 0 -10 4 8 14 31 18 37 18 45 6z m-1884 -20 c-13 -11 -17 -20
-10 -20 7 0 10 -2 7 -5 -3 -3 -13 -3 -22 1 -15 6 -13 9 11 25 37 24 44 24 14
-1z m2722 -5 c-19 -25 -33 -32 -33 -16 0 9 38 41 48 41 1 0 -5 -11 -15 -25z
m1462 -35 c-3 -5 -18 -9 -33 -9 l-27 1 30 8 c17 4 31 8 33 9 2 0 0 -3 -3 -9z
m40 0 c-3 -5 -16 -15 -28 -21 -21 -10 -21 -9 2 10 25 23 36 27 26 11z m-2562
-7 c-7 -2 -21 -2 -30 0 -10 3 -4 5 12 5 17 0 24 -2 18 -5z m47 -3 c-8 -5 -19
-10 -25 -10 -5 0 -3 5 5 10 8 5 20 10 25 10 6 0 3 -5 -5 -10z m950 0 c0 -5 -2
-10 -4 -10 -3 0 -8 5 -11 10 -3 6 -1 10 4 10 6 0 11 -4 11 -10z m-2755 -10
c-3 -5 -11 -10 -16 -10 -6 0 -7 5 -4 10 3 6 11 10 16 10 6 0 7 -4 4 -10z
m2749 -40 c-7 -7 -20 -7 -34 -2 -14 5 -19 11 -12 16 6 3 13 2 17 -4 8 -13 25
-13 25 -1 0 5 -9 13 -20 16 -11 4 -18 11 -15 16 4 5 16 0 27 -11 15 -14 19
-23 12 -30z m-1071 15 c-19 -25 -33 -32 -33 -16 0 9 38 41 48 41 1 0 -5 -11
-15 -25z m2571 1 c-21 -15 -30 -14 -19 3 3 6 14 11 23 11 13 0 13 -2 -4 -14z
m-4268 -13 c-10 -11 -36 -12 -36 -2 0 5 10 9 22 9 12 0 18 -3 14 -7z m49 -3
c3 -5 -1 -10 -9 -10 -8 0 -18 5 -21 10 -3 6 1 10 9 10 8 0 18 -4 21 -10z
m4175 -10 c0 -5 -5 -10 -11 -10 -5 0 -7 5 -4 10 3 6 8 10 11 10 2 0 4 -4 4
-10z m-2680 -10 c11 -8 7 -9 -15 -5 l-30 6 30 -15 c17 -8 24 -15 17 -15 -21
-1 -53 19 -47 30 8 12 26 11 45 -1z m2626 -2 c-10 -6 -22 -6 -26 -2 -5 5 3 10
18 11 22 1 24 0 8 -9z m-4292 -13 c-4 -8 -13 -15 -21 -15 -13 0 -13 3 -3 15 7
8 16 15 21 15 5 0 6 -7 3 -15z m4316 0 c0 -2 -10 -10 -22 -16 -21 -11 -22 -11
-9 4 13 16 31 23 31 12z m-2703 -11 c-3 -3 -12 -4 -19 -1 -8 3 -5 6 6 6 11 1
17 -2 13 -5z m1097 -26 c-5 -8 -1 -9 12 -4 14 5 16 4 8 -4 -7 -7 -21 -9 -34
-5 -18 6 -20 9 -9 16 20 12 31 11 23 -3z m-2734 -2 c0 -2 -11 -6 -25 -8 -13
-3 -22 -1 -19 3 5 9 44 13 44 5z m1567 -18 c-3 -8 -6 -5 -6 6 -1 11 2 17 5 13
3 -3 4 -12 1 -19z m-137 -9 c-12 -9 -11 -10 8 -6 12 3 22 1 22 -4 0 -14 17
-11 34 7 9 8 16 11 16 5 0 -6 -13 -17 -30 -26 -31 -16 -54 -21 -32 -6 10 6 4
10 -20 15 -26 5 -30 9 -18 16 21 13 39 12 20 -1z m2768 -2 c6 0 12 -5 12 -10
0 -5 -11 -6 -24 -3 -13 3 -26 3 -29 -2 -2 -4 -2 -2 -1 5 2 6 -2 14 -9 17 -7 3
-1 3 13 -1 14 -3 31 -6 38 -6z m-4318 -27 c0 -5 -8 -7 -17 -3 -17 6 -17 5 -1
-13 17 -20 17 -20 -19 -17 -27 2 -44 -3 -60 -19 -13 -12 -23 -17 -23 -12 0 12
90 74 107 74 7 0 13 -4 13 -10z m2770 0 c8 -5 11 -10 5 -10 -5 0 -17 5 -25 10
-8 5 -10 10 -5 10 6 0 17 -5 25 -10z m7 -25 c11 0 19 -3 16 -7 -6 -11 -24 -9
-58 7 -24 12 -25 13 -5 8 14 -4 35 -7 47 -8z m-1369 -36 c-11 -7 -10 -9 1 -9
8 0 12 -3 8 -6 -3 -3 -14 -1 -24 5 -11 6 -13 11 -5 11 7 0 10 4 7 10 -3 6 1 7
10 3 13 -5 14 -7 3 -14z m2752 11 c13 -9 13 -10 0 -10 -8 0 -22 5 -30 10 -13
9 -13 10 0 10 8 0 22 -5 30 -10z m-1521 -3 c-2 -1 -13 -9 -24 -17 -19 -14 -19
-14 -6 3 7 9 18 17 24 17 6 0 8 -1 6 -3z m1476 -13 c13 -9 29 -13 34 -10 5 4
12 2 16 -4 4 -6 -5 -10 -19 -10 -14 0 -26 -4 -26 -10 0 -5 -5 -10 -11 -10 -8
0 -8 4 0 14 10 11 7 17 -11 30 -29 21 -15 21 17 0z m-4215 -24 c-14 -11 -29
-20 -35 -20 -5 1 2 8 18 18 15 9 27 21 27 26 0 5 3 6 7 2 4 -4 -3 -16 -17 -26z
m2737 1 c0 -11 -5 -17 -10 -14 -5 3 -13 0 -17 -7 -5 -8 -10 -9 -14 -2 -3 6 3
13 14 17 11 3 20 11 20 16 0 5 2 9 4 9 3 0 4 -9 3 -19z m-2795 -14 c-6 -7 -9
-22 -6 -33 3 -12 -3 -27 -15 -38 -12 -11 -21 -14 -21 -7 0 6 7 14 15 17 18 7
20 34 3 34 -6 0 -3 9 7 20 20 22 34 28 17 7z m78 -7 c0 -5 -5 -10 -11 -10 -5
0 -7 5 -4 10 3 6 8 10 11 10 2 0 4 -4 4 -10z m4105 -20 c-3 -5 -12 -10 -18
-10 -7 0 -6 4 3 10 19 12 23 12 15 0z m45 0 c0 -5 -4 -10 -10 -10 -5 0 -10 5
-10 10 0 6 5 10 10 10 6 0 10 -4 10 -10z m-1513 -22 c-3 -8 -6 -5 -6 6 -1 11
2 17 5 13 3 -3 4 -12 1 -19z m-19 -10 c14 -12 16 -38 2 -38 -5 0 -10 8 -10 18
0 21 -54 23 -73 2 -10 -10 -9 -12 6 -7 9 4 17 2 17 -3 0 -12 -20 -13 -39 -1
-10 7 -9 11 7 22 24 17 73 21 90 7z m-1388 -31 c0 -7 -8 -13 -19 -13 -11 0
-17 5 -14 13 3 7 11 13 19 13 8 0 14 -6 14 -13z m1367 -3 c-3 -3 -12 -4 -19
-1 -8 3 -5 6 6 6 11 1 17 -2 13 -5z m-1499 -20 c39 -19 40 -23 7 -16 -14 2
-25 8 -25 12 0 5 -10 11 -22 13 -13 2 -16 5 -7 6 9 0 30 -6 47 -15z m2892 5
c11 -8 6 -9 -20 -4 -26 5 -31 4 -20 -4 17 -12 10 -14 -15 -5 -13 5 -14 8 -3
15 18 12 40 11 58 -2z m-2823 -5 c-3 -3 -12 -4 -19 -1 -8 3 -5 6 6 6 11 1 17
-2 13 -5z m1285 -26 c-9 -9 -7 -15 6 -25 16 -13 15 -14 -5 -8 -15 4 -25 0 -32
-12 -8 -14 -11 -15 -11 -3 -1 10 -4 9 -10 -5 -8 -17 -9 -17 -7 7 1 15 5 24 10
21 5 -3 15 4 23 16 8 12 20 21 27 21 8 0 8 -3 -1 -12z m-1362 -8 c-20 -13 -33
-13 -25 0 3 6 14 10 23 10 15 0 15 -2 2 -10z m2820 0 c0 -5 -7 -10 -15 -10 -8
0 -15 5 -15 10 0 6 7 10 15 10 8 0 15 -4 15 -10z m-1537 -40 c-3 -12 -8 -19
-11 -16 -5 6 5 36 12 36 2 0 2 -9 -1 -20z m-2566 -27 c-3 -10 -5 -4 -5 12 0
17 2 24 5 18 2 -7 2 -21 0 -30z m1163 20 c-25 -7 -49 -11 -55 -9 -5 3 -1 5 10
6 19 1 19 2 1 9 -11 4 2 7 35 7 l54 0 -45 -13z m2820 7 c-20 -13 -33 -13 -25
0 3 6 14 10 23 10 15 0 15 -2 2 -10z m28 -14 c-40 -21 -58 -26 -58 -16 0 5 11
12 25 16 14 3 25 10 25 15 0 5 7 6 15 2 13 -4 11 -8 -7 -17z m-3986 -16 c3
-16 1 -30 -4 -30 -4 0 -8 14 -8 30 0 17 2 30 4 30 2 0 6 -13 8 -30z m1058 20
c-8 -5 -24 -9 -35 -9 -16 1 -16 2 5 9 35 11 48 11 30 0z m1460 -14 c0 -3 -4
-8 -10 -11 -5 -3 -10 -1 -10 4 0 6 5 11 10 11 6 0 10 -2 10 -4z m-1461 -10
c-2 -2 -20 -6 -39 -10 -25 -4 -31 -3 -20 4 14 9 69 15 59 6z m-1075 -51 l6
-30 -14 25 c-8 14 -12 28 -9 33 7 11 9 7 17 -28z m2556 31 c0 -2 -13 -6 -29
-8 -17 -2 -28 -1 -25 4 5 8 54 12 54 4z m-1777 -23 c-7 -2 -19 -2 -25 0 -7 3
-2 5 12 5 14 0 19 -2 13 -5z m117 -3 c-8 -5 -24 -9 -35 -9 -16 1 -16 2 5 9 35
11 48 11 30 0z m2880 0 c0 -5 -4 -10 -10 -10 -5 0 -10 5 -10 10 0 6 5 10 10
10 6 0 10 -4 10 -10z m46 -17 c-6 -6 -36 9 -36 18 0 5 9 4 20 -3 10 -7 18 -14
16 -15z m-76 12 c0 -2 -9 -9 -20 -15 -16 -9 -18 -8 -14 5 5 13 34 22 34 10z
m-2916 -14 c3 -4 -6 -6 -19 -3 -14 2 -25 6 -25 8 0 8 39 4 44 -5z m1583 -19
c-10 -10 -14 -22 -10 -26 4 -4 -1 -4 -11 0 -18 7 -18 8 4 26 29 23 38 23 17 0z
m1359 3 c-20 -15 -36 -19 -36 -10 0 5 38 23 50 24 3 0 -4 -6 -14 -14z m-3749
-17 c-3 -8 -6 -5 -6 6 -1 11 2 17 5 13 3 -3 4 -12 1 -19z m150 -24 c-3 -3 -12
-4 -19 -1 -8 3 -5 6 6 6 11 1 17 -2 13 -5z m510 0 c-3 -3 -12 -4 -19 -1 -8 3
-5 6 6 6 11 1 17 -2 13 -5z m2943 -10 c20 -5 22 -3 10 6 -13 10 -12 11 3 6 10
-3 24 -6 30 -6 7 0 -1 -7 -16 -15 -25 -13 -31 -13 -53 1 -13 9 -31 14 -39 10
-10 -3 -14 -2 -9 5 3 6 16 8 28 5 11 -3 32 -9 46 -12z m-3000 -4 c10 -7 1 -8
-30 -4 -56 8 -64 14 -19 14 19 0 41 -5 49 -10z m-530 -10 c0 -5 -4 -10 -10
-10 -5 0 -10 5 -10 10 0 6 5 10 10 10 6 0 10 -4 10 -10z m43 3 c-7 -2 -19 -2
-25 0 -7 3 -2 5 12 5 14 0 19 -2 13 -5z m394 1 c-3 -3 -12 -4 -19 -1 -8 3 -5
6 6 6 11 1 17 -2 13 -5z m-383 -23 c3 -4 -6 -6 -19 -3 -14 2 -25 6 -25 8 0 8
39 4 44 -5z m2176 -6 c-7 -9 -15 -13 -17 -11 -7 7 7 26 19 26 6 0 6 -6 -2 -15z
m1157 -27 c-7 -4 -16 -8 -22 -8 -5 0 -3 5 5 10 8 5 11 10 7 10 -5 0 -5 5 -1
11 4 8 9 7 15 -2 5 -8 3 -17 -4 -21z m-90 -20 c-3 -8 -6 -5 -6 6 -1 11 2 17 5
13 3 -3 4 -12 1 -19z m43 12 c0 -5 10 -10 23 -11 17 0 14 -3 -13 -13 -19 -7
-37 -10 -40 -8 -3 3 0 7 7 9 7 2 9 11 6 19 -3 8 0 14 6 14 6 0 11 -4 11 -10z
m-1180 -111 c0 8 2 12 5 9 3 -3 2 -16 -3 -28 -9 -23 -9 -23 -20 10 -16 44 -15
51 3 20 8 -14 14 -19 15 -11z m940 2 c-6 -12 -15 -21 -21 -21 -10 0 -5 13 14
38 15 19 20 7 7 -17z m90 19 c18 -12 2 -12 -25 0 -13 6 -15 9 -5 9 8 0 22 -4
30 -9z m-1077 -45 c-3 -9 -8 -14 -10 -11 -3 3 -2 9 2 15 9 16 15 13 8 -4z
m807 -25 c-20 -13 -33 -13 -25 0 3 6 14 10 23 10 15 0 15 -2 2 -10z m56 1 c-4
-5 -3 -11 1 -14 5 -2 2 -2 -5 0 -8 1 -20 -4 -28 -12 -9 -8 -21 -15 -27 -15 -7
0 -6 4 3 10 8 5 11 10 5 10 -5 1 4 7 20 15 38 17 37 17 31 6z m-789 -41 c22 0
14 -24 -12 -37 -14 -6 -23 -7 -20 -3 3 5 2 10 -2 13 -5 2 -2 2 5 1 15 -4 16
22 0 32 -6 4 -14 2 -16 -4 -2 -7 -8 -10 -12 -7 -5 3 -2 15 8 26 17 20 17 20
26 -1 5 -11 15 -20 23 -20z m33 -40 c0 -5 -10 -10 -22 -9 -22 0 -22 1 -3 9 11
5 21 9 23 9 1 1 2 -3 2 -9z m550 -5 c-33 -19 -49 -19 -24 0 10 8 26 14 34 14
9 0 4 -6 -10 -14z m-117 -2 c-13 -2 -33 -2 -45 0 -13 2 -3 4 22 4 25 0 35 -2
23 -4z m-47 -40 c-6 -6 -36 9 -36 18 0 5 9 4 20 -3 10 -7 18 -14 16 -15z
m-371 6 c12 -19 -5 -23 -22 -6 -16 16 -16 17 -1 17 9 0 20 -5 23 -11z m428 4
c-7 -2 -21 -2 -30 0 -10 3 -4 5 12 5 17 0 24 -2 18 -5z"/>
<path d="M3693 9383 c9 -2 25 -2 35 0 9 3 1 5 -18 5 -19 0 -27 -2 -17 -5z"/>
<path d="M2350 6619 c0 -5 5 -7 10 -4 6 3 10 8 10 11 0 2 -4 4 -10 4 -5 0 -10
-5 -10 -11z"/>
<path d="M14405 11343 c-570 -27 -1094 -142 -1411 -309 -465 -246 -824 -570
-1029 -928 -88 -154 -168 -365 -208 -551 -43 -198 -46 -531 -7 -760 86 -501
256 -864 696 -1482 60 -84 162 -228 227 -320 65 -93 155 -220 200 -283 123
-175 309 -445 338 -493 14 -23 81 -135 148 -248 68 -113 143 -229 168 -258 91
-104 243 -198 339 -209 117 -13 214 76 254 232 63 248 -14 670 -230 1251 -71
192 -97 249 -151 330 -77 115 -99 187 -61 199 25 8 89 -15 186 -68 72 -39 160
-80 581 -274 61 -28 155 -72 210 -97 55 -26 152 -71 215 -100 63 -29 158 -73
210 -98 199 -94 927 -430 970 -447 25 -10 74 -32 110 -48 166 -77 560 -232
755 -297 206 -69 403 -115 494 -115 82 0 203 43 252 89 34 33 39 44 39 83 0
62 -15 102 -66 174 -84 119 -302 301 -574 479 -210 137 -231 150 -385 236
-144 81 -344 208 -660 419 -482 321 -815 567 -815 602 0 15 41 8 149 -23 125
-36 517 -166 826 -274 121 -43 276 -97 345 -120 69 -24 177 -62 240 -85 63
-23 158 -57 210 -75 52 -18 187 -67 300 -108 816 -297 1487 -447 1832 -409
110 12 198 39 242 73 31 24 35 73 10 125 -46 96 -241 261 -479 406 -459 278
-1065 560 -2320 1080 -740 306 -990 425 -969 459 7 12 102 11 221 -1 570 -60
1019 -118 1883 -244 1003 -147 1105 -160 1272 -154 121 5 154 10 213 31 159
59 199 184 104 327 -93 139 -216 212 -536 320 -111 37 -206 70 -210 73 -13 8
-327 102 -433 130 -86 23 -212 49 -375 78 -159 28 -1898 574 -2042 641 -44 21
-61 44 -43 62 21 21 715 4 990 -24 639 -66 976 -42 1079 76 27 30 31 42 31 95
0 75 -22 120 -90 185 -107 103 -313 201 -615 293 -68 21 -182 49 -530 130
-768 180 -1468 254 -2100 224z"/>
<path d="M10045 8730 c-501 -34 -1054 -301 -1466 -710 -200 -198 -319 -345
-734 -909 -66 -89 -345 -465 -392 -527 -12 -16 -52 -69 -89 -119 -61 -82 -133
-173 -159 -201 -5 -6 -37 -41 -70 -79 -33 -38 -88 -100 -123 -139 -167 -187
-236 -317 -257 -491 -12 -96 0 -141 55 -196 182 -182 590 -47 1178 391 233
173 388 306 446 381 90 118 163 168 180 123 11 -27 6 -117 -9 -180 -8 -34 -23
-144 -35 -245 -11 -101 -27 -240 -35 -309 -8 -69 -30 -262 -50 -430 -19 -168
-42 -361 -50 -430 -8 -69 -26 -228 -40 -355 -14 -126 -34 -300 -45 -385 -90
-729 -109 -1429 -45 -1677 17 -65 80 -160 138 -207 35 -29 53 -36 86 -36 93 0
162 69 255 255 108 215 202 520 297 965 54 254 68 313 124 520 21 74 41 149
45 165 19 74 136 482 172 600 85 280 158 475 178 475 4 0 12 -19 16 -42 12
-63 7 -951 -8 -1503 -17 -631 -17 -1465 0 -1650 33 -352 62 -528 118 -712 58
-192 132 -316 215 -358 28 -15 32 -15 62 4 155 96 284 497 386 1206 70 487
117 951 181 1800 78 1037 108 1264 158 1202 24 -30 134 -544 247 -1152 112
-607 120 -651 235 -1320 32 -186 86 -476 121 -650 61 -298 190 -495 324 -495
106 0 231 142 278 315 27 98 37 280 37 652 0 370 -9 527 -40 733 -25 162 -28
270 -40 1286 -11 851 -8 966 22 985 15 10 35 -6 52 -40 7 -14 34 -102 60 -196
47 -169 119 -416 156 -530 10 -33 31 -116 45 -185 135 -650 299 -1011 457
-1010 45 1 106 31 145 71 126 133 172 545 118 1074 -7 77 -16 174 -20 215 -70
842 -238 1584 -505 2235 -48 118 -235 497 -282 573 -221 355 -358 513 -633
733 -304 243 -653 414 -973 478 -87 17 -137 23 -317 35 -27 2 -104 0 -170 -4z"/>
</g>
</svg>
