<?xml version="1.0" standalone="no"?>
<!DOCTYPE svg PUBLIC "-//W3C//DTD SVG 20010904//EN"
 "http://www.w3.org/TR/2001/REC-SVG-20010904/DTD/svg10.dtd">
<svg version="1.0" xmlns="http://www.w3.org/2000/svg"
 width="2048.000000pt" height="1924.000000pt" viewBox="0 0 2048.000000 1924.000000"
 preserveAspectRatio="xMidYMid meet">

<g transform="translate(0.000000,1924.000000) scale(0.100000,-0.100000)"
fill="#000000" stroke="none">
<path d="M14266 18529 c-157 -54 -269 -164 -516 -509 -25 -35 -50 -68 -55 -74
-20 -21 -152 -202 -202 -276 -75 -112 -168 -271 -220 -374 -59 -119 -303 -476
-828 -1214 -407 -572 -454 -632 -491 -618 -25 10 -15 52 62 263 42 114 105
289 139 388 35 99 95 254 135 345 192 438 269 704 258 887 -6 94 -25 134 -75
158 -223 106 -501 -157 -930 -880 -343 -579 -516 -923 -698 -1385 -310 -791
-444 -1632 -341 -2145 129 -642 380 -1093 789 -1418 363 -289 886 -443 1442
-424 203 7 318 22 520 67 266 59 393 96 1045 305 74 23 171 54 215 68 228 71
360 113 450 142 55 19 154 46 220 61 66 14 145 32 175 39 30 7 100 23 155 35
125 28 220 62 295 106 124 72 240 206 240 277 0 196 -209 334 -597 392 -344
51 -980 40 -1189 -20 -101 -29 -189 -33 -198 -9 -10 27 25 76 123 174 94 92
198 203 431 460 63 69 164 179 225 245 61 66 126 138 144 160 19 22 75 85 126
140 50 55 147 161 215 235 68 74 144 158 169 185 607 655 961 1095 1120 1394
l56 106 3 115 c4 132 -8 168 -67 207 -158 106 -608 -165 -1231 -742 -168 -156
-670 -561 -1010 -816 -248 -186 -360 -256 -360 -227 0 36 163 266 629 887 130
172 259 345 286 383 28 38 134 178 236 311 522 681 785 1078 955 1444 132 280
177 521 118 622 -19 32 -20 33 -84 29 -132 -7 -321 -123 -600 -368 -130 -114
-415 -395 -522 -515 -45 -49 -102 -112 -127 -140 -151 -163 -483 -538 -643
-725 -25 -30 -131 -154 -235 -276 -103 -121 -235 -277 -293 -345 -202 -240
-438 -505 -504 -567 -69 -64 -96 -76 -96 -43 0 39 208 513 435 991 54 113 115
243 137 289 22 46 96 199 164 339 68 140 124 257 124 258 0 2 72 149 161 326
89 178 170 345 181 372 10 27 50 113 88 192 104 213 143 332 156 475 11 127
-29 218 -109 248 -44 17 -136 12 -201 -10z"/>
<path d="M4658 12249 c-94 -10 -165 -36 -196 -71 -35 -39 -62 -112 -62 -168 0
-72 52 -216 73 -203 6 4 7 1 2 -6 -8 -14 31 -74 114 -171 30 -36 56 -66 57
-68 2 -3 26 -9 45 -11 4 -1 10 -9 13 -18 6 -15 4 -15 -14 2 -11 10 -20 14 -20
8 0 -5 28 -34 62 -64 35 -30 83 -72 108 -95 95 -85 137 -114 156 -108 13 4 15
3 6 -3 -23 -17 18 -41 66 -38 43 2 64 -8 36 -19 -8 -3 -25 -1 -36 5 -11 6 -22
8 -25 6 -2 -3 23 -24 56 -46 33 -23 63 -45 66 -51 3 -5 11 -10 16 -10 6 0 7 5
3 12 -4 7 -3 8 5 4 6 -4 9 -11 6 -16 -6 -9 142 -106 157 -102 5 1 7 -2 3 -7
-7 -13 32 -34 47 -25 6 4 8 3 5 -3 -4 -6 25 -29 66 -53 39 -24 83 -50 97 -60
14 -9 67 -32 119 -51 51 -19 109 -48 129 -64 31 -27 34 -33 23 -53 -14 -25
-80 -47 -191 -61 -77 -10 -803 -156 -830 -168 -8 -3 -30 -7 -48 -10 -18 -2
-99 -17 -180 -34 -206 -43 -516 -106 -652 -134 -153 -32 -515 -108 -665 -140
-558 -119 -1054 -270 -1288 -392 -84 -44 -199 -163 -157 -163 6 0 10 -5 10
-11 0 -8 -5 -8 -15 1 -13 10 -18 6 -35 -31 -57 -127 19 -215 225 -260 216 -46
691 -39 1145 16 119 15 428 36 800 56 118 6 387 13 598 14 210 2 388 7 395 10
6 4 5 1 -4 -7 -9 -7 -14 -18 -12 -25 2 -6 -6 -17 -18 -23 -42 -23 -349 -128
-664 -227 -407 -129 -482 -152 -508 -159 -22 -5 -26 -9 -15 -16 9 -6 6 -7 -10
-3 -13 4 -36 2 -50 -3 -51 -19 -598 -186 -664 -202 -26 -7 -45 -16 -42 -21 3
-5 -2 -6 -10 -3 -14 5 -120 -23 -239 -64 l-47 -16 27 -12 c35 -16 26 -17 -15
-3 -27 9 -47 6 -134 -21 -57 -18 -107 -36 -113 -40 -5 -3 -30 -12 -55 -19
-125 -35 -487 -178 -691 -273 -64 -29 -86 -44 -77 -51 9 -6 8 -7 -4 -3 -10 3
-46 -9 -80 -26 -61 -30 -238 -135 -248 -147 -3 -3 -24 -19 -47 -35 -24 -16
-40 -32 -37 -37 3 -5 -1 -6 -8 -4 -17 7 -141 -122 -166 -172 -44 -86 -36 -120
37 -157 157 -81 581 -76 1106 14 164 28 384 68 435 79 25 5 110 23 190 39 148
31 328 71 435 97 33 8 159 38 280 66 121 28 308 73 415 99 107 27 254 63 325
80 72 16 153 36 180 44 28 8 129 32 225 55 429 101 600 129 600 99 0 -22 -34
-49 -150 -119 -58 -34 -107 -66 -110 -69 -3 -4 -14 -10 -25 -15 -19 -7 -19 -8
5 -16 23 -8 23 -8 -5 -5 -22 3 -56 -11 -134 -56 -58 -32 -108 -62 -111 -66 -3
-4 -10 -8 -17 -9 -7 -2 -50 -25 -95 -51 -77 -45 -312 -176 -453 -252 -33 -18
-113 -61 -177 -96 -64 -35 -120 -64 -124 -64 -3 0 -18 -8 -32 -18 -30 -21
-570 -311 -799 -429 -39 -20 -69 -41 -66 -47 3 -5 2 -6 -4 -3 -9 6 -122 -51
-237 -119 -27 -16 -101 -56 -165 -90 -152 -80 -239 -141 -332 -233 -118 -119
-152 -208 -111 -293 28 -57 50 -71 93 -55 25 9 33 9 36 0 3 -7 14 -14 26 -14
18 -1 19 -2 4 -6 -10 -3 -24 1 -32 7 -16 13 -59 4 -50 -10 7 -11 54 -33 110
-52 24 -8 86 -13 155 -13 153 1 183 8 850 227 102 33 190 64 195 67 6 4 31 15
58 25 26 10 47 22 47 27 0 6 4 8 9 4 13 -7 101 36 95 47 -3 4 1 5 9 2 8 -3 52
15 98 40 46 24 122 58 169 75 167 58 285 102 305 111 11 5 39 14 63 21 23 7
42 16 42 21 0 5 4 7 9 4 5 -3 60 13 122 35 133 48 1137 389 1254 427 152 48
215 38 161 -25 -22 -25 -22 -29 -7 -40 15 -12 14 -13 -2 -7 -13 5 -16 2 -11
-12 5 -15 4 -16 -4 -4 -6 8 -8 18 -6 22 10 15 -12 8 -33 -11 -11 -10 -33 -26
-49 -35 -16 -9 -60 -39 -99 -66 -38 -28 -99 -71 -135 -95 -36 -24 -94 -65
-130 -90 -36 -25 -90 -63 -120 -83 -56 -38 -71 -52 -65 -62 2 -3 -7 -6 -18 -6
-24 -2 -319 -174 -354 -207 -13 -11 -23 -17 -23 -13 0 4 -37 -18 -82 -50 -220
-153 -312 -229 -301 -247 3 -6 1 -7 -4 -4 -12 8 -99 -81 -130 -133 -12 -19
-27 -54 -34 -77 -11 -37 -10 -48 6 -84 24 -53 84 -103 143 -120 120 -35 422 8
642 92 30 11 79 28 107 36 29 9 51 18 49 22 -2 3 6 7 18 7 12 1 48 13 79 28
32 14 60 26 63 26 3 0 38 15 77 34 40 19 90 42 112 51 32 13 37 18 25 26 -11
7 -7 8 14 3 20 -5 27 -4 22 4 -5 8 -1 10 9 6 8 -4 21 -2 28 4 6 5 23 13 37 17
14 4 61 25 105 46 44 21 112 51 150 68 39 17 69 35 68 40 -2 6 4 8 11 5 12 -4
76 20 76 29 0 1 -11 4 -26 5 -14 1 -23 -2 -20 -7 3 -5 -5 -8 -18 -7 -25 1 -29
27 -5 34 11 3 12 2 1 -6 -9 -6 6 -8 45 -7 66 3 120 29 436 207 122 69 175 104
168 111 -7 7 -16 6 -28 -3 -17 -13 -17 -13 -1 5 14 15 20 16 32 6 17 -14 61 3
51 19 -3 6 0 8 7 5 7 -3 44 15 81 40 38 25 71 45 74 45 12 0 375 259 487 348
173 137 168 133 153 151 -11 14 -10 14 6 2 16 -13 22 -10 62 29 41 40 52 79
19 66 -8 -3 -14 1 -14 8 0 8 11 14 26 14 14 0 21 -3 16 -7 -7 -4 -7 -12 -2
-21 6 -10 24 1 77 52 37 36 83 79 102 96 21 19 31 35 26 43 -5 7 -4 10 3 5 12
-7 75 52 67 64 -3 5 0 12 6 15 5 4 8 13 5 21 -3 7 -2 16 3 18 11 7 10 -27 -2
-41 -5 -7 -7 -13 -4 -13 14 0 181 194 170 197 -7 3 -13 10 -13 16 0 8 4 7 12
-1 9 -9 16 -8 30 5 10 9 18 22 18 28 0 7 7 16 16 19 9 4 14 13 10 22 -3 8 -2
13 3 9 10 -6 86 93 78 101 -3 3 -20 -14 -39 -38 -30 -40 -36 -43 -68 -37 -23
4 -27 7 -12 8 13 0 20 5 17 11 -4 6 -1 9 7 8 9 -2 12 7 11 27 -2 25 0 27 8 12
6 -9 7 -27 4 -40 -5 -19 -3 -18 19 8 14 17 26 33 26 38 0 11 -18 9 -23 -3 -3
-6 -4 -5 -3 2 2 8 16 12 35 12 28 -1 36 5 72 57 78 115 239 475 223 500 -4 7
-3 9 3 6 21 -13 110 302 140 495 22 140 25 484 5 598 -30 168 -102 407 -128
423 -7 4 -11 14 -8 22 7 16 -96 215 -159 310 -71 107 -189 247 -197 234 -9
-14 -91 28 -98 51 -4 11 -1 10 12 -3 29 -29 74 -49 82 -36 8 14 -147 171 -163
165 -7 -3 -15 0 -19 6 -4 7 -3 8 4 4 27 -16 10 11 -22 37 -43 34 -57 35 -26 2
13 -14 19 -25 12 -25 -6 0 -18 -7 -26 -16 -9 -8 -16 -10 -16 -4 0 6 7 13 15
16 8 4 15 11 15 16 0 6 -7 8 -14 5 -10 -4 -13 -1 -10 7 3 8 0 17 -5 21 -6 3
-9 11 -5 16 6 11 -43 54 -63 54 -6 0 -15 4 -20 9 -5 5 -2 6 7 2 8 -5 2 3 -15
18 -16 14 -36 23 -43 21 -7 -3 -11 -1 -7 4 3 5 -8 19 -24 30 -30 22 -46 27
-37 12 7 -10 -72 -7 -82 4 -4 4 7 5 23 1 17 -3 36 -2 44 3 10 6 -2 19 -48 50
-33 23 -61 38 -61 34 0 -4 -4 -2 -9 6 -5 8 -14 10 -21 6 -9 -6 -6 -12 11 -21
16 -9 19 -13 8 -14 -8 0 -20 5 -25 10 -6 6 -24 13 -39 16 -36 6 -47 13 -40 24
3 5 19 1 36 -7 37 -18 66 -3 30 16 -12 7 -21 9 -21 5 0 -4 -8 0 -17 8 -28 24
-108 68 -124 68 -11 0 -12 -2 -1 -9 11 -7 11 -9 -1 -14 -10 -4 -14 1 -13 15 1
16 -25 31 -152 84 -84 36 -158 61 -165 58 -7 -4 -9 -3 -4 1 11 13 -89 48 -798
284 -363 121 -698 234 -745 251 -47 17 -98 36 -115 42 -16 6 -58 23 -93 39
-34 16 -65 29 -68 29 -3 0 -35 14 -72 30 -36 17 -72 28 -79 26 -8 -3 -11 -2
-8 3 3 5 -5 13 -17 17 -13 4 -45 17 -73 29 -133 59 -261 79 -397 64z m55 -16
c-7 -2 -19 -2 -25 0 -7 3 -2 5 12 5 14 0 19 -2 13 -5z m-49 -13 c47 0 25 -9
-34 -13 -30 -3 -44 -3 -30 0 24 5 24 6 5 14 -17 8 -16 9 5 4 14 -2 38 -5 54
-5z m195 -4 c-2 -2 -24 -6 -49 -9 -30 -4 -38 -3 -25 3 19 8 83 14 74 6z m-383
-84 c-8 -7 -36 -12 -36 -6 0 2 6 13 12 24 11 17 14 17 21 4 5 -9 6 -18 3 -22z
m604 28 c13 -8 13 -10 -2 -10 -9 0 -20 5 -23 10 -8 13 5 13 25 0z m-9 -28 c-7
-2 -18 1 -23 6 -8 8 -4 9 13 5 13 -4 18 -8 10 -11z m-594 -74 c-2 -13 -4 -5
-4 17 -1 22 1 32 4 23 2 -10 2 -28 0 -40z m-17 4 c0 -21 -2 -22 -15 -12 -12
10 -15 10 -15 0 0 -8 -3 -11 -6 -7 -10 10 6 44 21 44 9 0 15 -10 15 -25z m770
24 c0 -2 -7 -6 -15 -10 -8 -3 -15 -1 -15 4 0 6 7 10 15 10 8 0 15 -2 15 -4z
m35 -15 c-6 -5 -23 -12 -40 -16 l-30 -6 25 15 c28 17 60 22 45 7z m21 -16
c-15 -8 -33 -15 -40 -15 -16 0 36 28 54 29 8 0 2 -6 -14 -14z m39 -5 c-3 -5
-14 -10 -23 -9 -14 0 -13 2 3 9 27 11 27 11 20 0z m59 -37 c-8 -9 -18 -12 -22
-8 -4 4 -1 10 6 12 6 3 10 9 7 14 -4 5 1 6 9 3 14 -5 14 -8 0 -21z m60 -9 c9
-3 13 -11 9 -17 -4 -6 4 -8 23 -3 23 5 26 4 14 -5 -12 -9 -11 -10 8 -6 13 3
21 3 17 -1 -3 -4 -31 -7 -61 -7 -41 0 -49 2 -34 9 30 13 24 29 -7 22 -21 -5
-24 -4 -13 4 18 11 23 12 44 4z m-996 -64 c-7 -10 -14 -18 -15 -16 -6 6 9 36
18 36 5 0 4 -9 -3 -20z m29 -12 c-3 -8 -6 -5 -6 6 -1 11 2 17 5 13 3 -3 4 -12
1 -19z m1145 -10 c-6 -6 -15 -8 -19 -4 -4 4 -1 11 7 16 19 12 27 3 12 -12z
m-1154 -17 c8 -23 7 -29 -4 -27 -21 3 -26 13 -19 35 8 27 11 27 23 -8z m1179
3 c-16 -9 -31 -13 -34 -10 -3 3 5 10 18 15 37 15 47 12 16 -5z m40 -7 c0 -7
-12 -14 -26 -15 l-26 -2 25 14 c14 8 25 14 26 15 0 1 1 -5 1 -12z m43 -7 c8
-5 11 -10 5 -10 -5 0 -17 5 -25 10 -8 5 -10 10 -5 10 6 0 17 -5 25 -10z
m-1252 -55 c-3 -3 -9 2 -12 12 -6 14 -5 15 5 6 7 -7 10 -15 7 -18z m1438 -12
c5 3 23 -1 39 -8 l30 -12 -30 2 c-53 4 -88 17 -74 26 8 4 16 3 20 -3 4 -6 11
-8 15 -5z m-46 -13 c8 -5 11 -10 5 -10 -5 0 -17 5 -25 10 -8 5 -10 10 -5 10 6
0 17 -5 25 -10z m-1340 -20 c8 -5 11 -12 7 -17 -5 -4 -12 -1 -18 7 -8 13 -10
13 -19 0 -5 -8 -10 -10 -10 -4 0 23 16 29 40 14z m1550 -20 c3 -1 14 -2 25 -1
19 1 19 0 1 -7 -22 -10 -66 -4 -66 8 0 7 22 7 40 0z m-1538 -32 c-7 -7 -12 -8
-12 -2 0 14 12 26 19 19 2 -3 -1 -11 -7 -17z m1666 -7 c12 -7 6 -8 -20 -6 -20
2 -45 8 -55 14 -14 8 -10 9 21 6 21 -3 45 -9 54 -14z m-93 -1 c13 -6 15 -9 5
-9 -8 0 -22 4 -30 9 -18 12 -2 12 25 0z m-1552 -13 c3 -8 -1 -14 -8 -14 -7 0
-11 6 -8 14 3 7 6 13 8 13 2 0 5 -6 8 -13z m47 -17 c0 -5 -4 -10 -9 -10 -6 0
-13 5 -16 10 -3 6 1 10 9 10 9 0 16 -4 16 -10z m30 -13 c0 -8 -38 -47 -45 -47
-5 0 2 11 15 25 22 24 30 29 30 22z m1705 -7 c-3 -5 -10 -10 -16 -10 -5 0 -9
5 -9 10 0 6 7 10 16 10 8 0 12 -4 9 -10z m69 -15 c11 -8 14 -15 8 -15 -19 0
-27 4 -24 13 1 4 -10 5 -25 2 -23 -4 -25 -4 -8 4 27 13 27 13 49 -4z m-64 -15
c8 -5 11 -10 5 -10 -5 0 -17 5 -25 10 -8 5 -10 10 -5 10 6 0 17 -5 25 -10z
m-1719 -13 c-6 -8 -7 -18 -3 -22 4 -5 1 -5 -6 -1 -10 6 -10 11 -1 22 6 8 14
14 16 14 3 0 0 -6 -6 -13z m1949 -27 c22 -1 23 -2 6 -9 -22 -9 -66 -3 -66 9 0
5 8 7 18 5 9 -2 28 -4 42 -5z m50 -21 c-11 -8 -6 -9 20 -5 33 5 34 5 11 -8
-18 -10 -29 -10 -47 -2 -20 10 -21 12 -6 18 26 10 39 9 22 -3z m-40 -19 c8 -5
11 -10 5 -10 -5 0 -17 5 -25 10 -8 5 -10 10 -5 10 6 0 17 -5 25 -10z m137 2
c8 -5 -2 -8 -25 -9 -28 0 -32 1 -17 7 26 11 28 11 42 2z m113 -46 c0 -2 -9 -6
-20 -9 -11 -3 -18 -1 -14 4 5 9 34 13 34 5z m70 -22 c32 -13 32 -14 5 -7 -16
3 -41 6 -54 6 -18 -1 -20 1 -10 8 17 11 16 11 59 -7z m-75 -14 c13 -6 15 -9 5
-9 -8 0 -22 4 -30 9 -18 12 -2 12 25 0z m50 0 c3 -5 -1 -10 -9 -10 -9 0 -16 5
-16 10 0 6 4 10 9 10 6 0 13 -4 16 -10z m102 -6 c-3 -3 -12 -4 -19 -1 -8 3 -5
6 6 6 11 1 17 -2 13 -5z m-2182 -14 c3 -6 -1 -7 -10 -4 -12 5 -14 2 -8 -12 6
-16 5 -17 -9 -4 -11 11 -12 17 -4 22 15 10 24 10 31 -2z m71 -27 c-6 -6 -46
20 -46 30 0 4 11 0 25 -9 14 -9 24 -19 21 -21z m2204 2 c18 -10 20 -14 8 -15
-9 0 -20 4 -23 10 -3 5 -19 7 -35 3 -19 -3 -30 -1 -30 6 0 15 50 13 80 -4z
m-2246 -11 c9 -3 16 -12 16 -20 0 -7 10 -20 22 -28 12 -9 19 -18 17 -21 -3 -3
-22 13 -42 35 -19 22 -34 40 -32 40 2 0 10 -3 19 -6z m2243 -30 c-3 -3 -12 -4
-19 -1 -8 3 -5 6 6 6 11 1 17 -2 13 -5z m-2134 -21 c-7 -2 -19 -2 -25 0 -7 3
-2 5 12 5 14 0 19 -2 13 -5z m2287 -13 c-19 -13 -30 -13 -30 0 0 6 10 10 23
10 18 0 19 -2 7 -10z m42 -7 c-12 -2 -20 -9 -17 -14 4 -5 -5 -9 -19 -9 -13 0
-27 -6 -29 -12 -4 -10 -6 -10 -6 -1 -1 15 47 41 74 41 16 -1 16 -2 -3 -5z
m-2342 -13 c0 -5 -2 -10 -4 -10 -3 0 -8 5 -11 10 -3 6 -1 10 4 10 6 0 11 -4
11 -10z m2402 -22 c-26 -10 -39 -9 -22 3 11 8 8 9 -15 4 -28 -6 -28 -5 -11 8
14 11 24 11 42 3 20 -10 21 -12 6 -18z m-2377 -7 c-3 -6 11 -8 35 -6 42 4 60
-9 41 -28 -9 -9 -11 -8 -6 4 5 14 -1 16 -36 15 -26 0 -44 4 -46 12 -3 6 0 12
7 12 6 0 9 -4 5 -9z m2536 -48 c-11 -5 -11 -7 0 -15 11 -8 10 -9 -3 -5 -9 3
-19 1 -21 -6 -2 -7 -8 -8 -13 -4 -10 9 22 38 40 36 6 0 5 -3 -3 -6z m54 -34
c11 -16 1 -19 -13 -3 -7 8 -8 14 -3 14 5 0 13 -5 16 -11z m5 -59 c0 -5 10 -10
22 -10 12 0 19 -3 15 -6 -9 -9 -57 5 -57 16 0 6 5 10 10 10 6 0 10 -4 10 -10z
m-2273 -26 c-3 -3 -12 -4 -19 -1 -8 3 -5 6 6 6 11 1 17 -2 13 -5z m-40 -10
c-3 -3 -12 -4 -19 -1 -8 3 -5 6 6 6 11 1 17 -2 13 -5z m2512 -30 c15 -16 15
-17 0 -6 -9 7 -27 11 -39 10 -13 -2 -25 2 -27 8 -6 18 48 8 66 -12z m-2478 7
c-23 -15 8 -47 44 -45 39 1 49 -5 34 -22 -14 -17 -33 -19 -23 -2 5 8 2 9 -10
5 -11 -5 -15 -3 -10 5 5 7 2 9 -8 5 -10 -3 -25 4 -39 19 -20 21 -21 26 -9 34
8 5 20 10 25 10 6 0 4 -4 -4 -9z m229 -125 c0 -2 -7 -7 -16 -10 -8 -3 -12 -2
-9 4 6 10 25 14 25 6z m0 -61 c22 -27 3 -16 -36 21 -33 31 -34 33 -8 16 17
-12 37 -28 44 -37z m15 24 c11 -17 -1 -21 -15 -4 -8 9 -8 15 -2 15 6 0 14 -5
17 -11z m2459 -24 c-7 -16 -24 -21 -24 -6 0 8 7 13 27 20 1 1 0 -6 -3 -14z
m-2377 -28 c7 0 10 -4 7 -8 -2 -4 -18 -3 -34 3 -35 12 -41 23 -7 12 12 -4 27
-7 34 -7z m58 -7 c3 -5 2 -10 -4 -10 -5 0 -13 5 -16 10 -3 6 -2 10 4 10 5 0
13 -4 16 -10z m-15 -30 c0 -5 -7 -7 -15 -4 -8 4 -15 8 -15 10 0 2 7 4 15 4 8
0 15 -4 15 -10z m2437 -40 c9 -16 21 -30 25 -30 4 0 8 -6 8 -12 0 -7 -11 -1
-25 14 -14 15 -25 31 -25 37 0 5 -8 12 -17 14 -16 4 -16 5 -1 6 9 0 25 -12 35
-29z m-2280 -6 c24 -9 43 -21 43 -25 0 -5 -10 -4 -22 2 -50 26 -57 28 -63 19
-3 -6 -12 -10 -18 -9 -9 0 -8 2 1 6 6 2 10 9 6 14 -8 13 4 11 53 -7z m37 7 c4
-5 -3 -7 -14 -4 -23 6 -26 13 -6 13 8 0 17 -4 20 -9z m2286 -11 c13 -11 21
-22 18 -25 -2 -3 -15 6 -28 20 -28 30 -22 33 10 5z m-2290 -40 c8 -5 11 -10 5
-10 -5 0 -17 5 -25 10 -8 5 -10 10 -5 10 6 0 17 -5 25 -10z m2320 -15 c0 -1
-12 -2 -26 -2 -17 0 -22 2 -13 7 10 7 39 3 39 -5z m40 -15 c8 -5 12 -11 10
-14 -3 -2 -14 2 -24 10 -22 15 -10 19 14 4z m-5 -68 c-3 -3 -11 0 -18 7 -9 10
-8 11 6 5 10 -3 15 -9 12 -12z m-2387 -39 c-10 -2 -26 -2 -35 0 -10 3 -2 5 17
5 19 0 27 -2 18 -5z m2460 -4 c-2 -6 3 -14 10 -16 7 -3 12 3 12 13 0 16 1 16
15 -2 19 -25 19 -40 0 -24 -12 10 -15 10 -15 0 0 -9 -7 -7 -20 5 -22 20 -26
35 -10 35 6 0 9 -5 8 -11z m-2508 -13 l33 -13 -35 -7 c-23 -4 -47 -1 -69 9
-22 10 -25 14 -9 10 14 -4 36 -9 50 -11 24 -5 24 -5 6 10 -24 20 -18 20 24 2z
m83 -3 c-7 -2 -19 -2 -25 0 -7 3 -2 5 12 5 14 0 19 -2 13 -5z m-266 -19 c-3
-3 -12 -4 -19 -1 -8 3 -5 6 6 6 11 1 17 -2 13 -5z m90 0 c-3 -3 -12 -4 -19 -1
-8 3 -5 6 6 6 11 1 17 -2 13 -5z m-250 -30 c-3 -3 -12 -4 -19 -1 -8 3 -5 6 6
6 11 1 17 -2 13 -5z m33 -14 c0 -5 -5 -10 -11 -10 -5 0 -7 5 -4 10 3 6 8 10
11 10 2 0 4 -4 4 -10z m-62 -11 l37 -1 -30 -8 c-21 -5 -24 -8 -10 -10 11 -1
15 -4 9 -6 -7 -3 -27 5 -45 17 -19 11 -26 18 -16 15 10 -3 35 -7 55 -7z m2990
-14 c-3 -3 -9 2 -12 12 -6 14 -5 15 5 6 7 -7 10 -15 7 -18z m-3105 8 c-7 -2
-19 -2 -25 0 -7 3 -2 5 12 5 14 0 19 -2 13 -5z m3077 -8 c0 -8 -4 -15 -10 -15
-5 0 -7 7 -4 15 4 8 8 15 10 15 2 0 4 -7 4 -15z m-3105 -4 c14 -6 5 -8 -27 -7
-25 1 -41 4 -35 8 15 9 36 9 62 -1z m80 -1 c13 -6 15 -9 5 -9 -8 0 -22 4 -30
9 -18 12 -2 12 25 0z m-290 -50 c13 -5 14 -9 5 -9 -8 0 -24 4 -35 9 -13 5 -14
9 -5 9 8 0 24 -4 35 -9z m-102 -7 c-7 -2 -19 -2 -25 0 -7 3 -2 5 12 5 14 0 19
-2 13 -5z m3526 -53 c0 -8 -4 -5 -9 8 -12 27 -24 29 -17 2 3 -11 2 -20 -3 -20
-10 0 -20 52 -13 64 7 11 43 -34 42 -54z m-3483 43 c-16 -3 -25 -8 -19 -11 6
-4 -10 -7 -35 -8 l-47 0 40 12 c22 7 51 12 65 12 21 -1 21 -2 -4 -5z m-169
-19 c-3 -3 -12 -4 -19 -1 -8 3 -5 6 6 6 11 1 17 -2 13 -5z m-210 -40 c-3 -3
-12 -4 -19 -1 -8 3 -5 6 6 6 11 1 17 -2 13 -5z m-7 -15 c18 -1 15 -3 -14 -10
-22 -5 -44 -7 -50 -5 -6 2 -2 5 9 6 l20 1 -20 10 c-17 8 -17 9 5 4 14 -2 36
-5 50 -6z m3901 -6 c13 -16 12 -17 -3 -4 -10 7 -18 15 -18 17 0 8 8 3 21 -13z
m-4024 -9 c-3 -3 -12 -4 -19 -1 -8 3 -5 6 6 6 11 1 17 -2 13 -5z m40 -10 c-3
-3 -12 -4 -19 -1 -8 3 -5 6 6 6 11 1 17 -2 13 -5z m96 -1 c-7 -2 -19 -2 -25 0
-7 3 -2 5 12 5 14 0 19 -2 13 -5z m-273 -23 c0 -5 -12 -10 -27 -9 l-28 1 25 8
c14 4 26 8 28 9 1 1 2 -3 2 -9z m-107 -17 c-7 -2 -19 -2 -25 0 -7 3 -2 5 12 5
14 0 19 -2 13 -5z m4291 -8 c-4 -8 -11 -15 -16 -15 -6 0 -5 6 2 15 7 8 14 15
16 15 2 0 1 -7 -2 -15z m-4311 -14 c11 -4 -5 -7 -40 -8 -41 0 -51 2 -33 7 32
10 50 10 73 1z m4332 -10 c-3 -6 -11 -11 -16 -11 -5 0 -4 6 3 14 14 16 24 13
13 -3z m-4455 -1 c11 -8 7 -9 -15 -4 -37 8 -45 14 -19 14 10 0 26 -5 34 -10z
m-253 -46 c-3 -3 -12 -4 -19 -1 -8 3 -5 6 6 6 11 1 17 -2 13 -5z m-49 -21
c-10 -2 -28 -2 -40 0 -13 2 -5 4 17 4 22 1 32 -1 23 -4z m62 -3 c-8 -5 -22 -9
-30 -9 -10 0 -8 3 5 9 27 12 43 12 25 0z m-130 -4 c0 -2 -7 -7 -16 -10 -8 -3
-12 -2 -9 4 6 10 25 14 25 6z m73 -13 c-7 -2 -21 -2 -30 0 -10 3 -4 5 12 5 17
0 24 -2 18 -5z m4813 -5 c5 -7 3 -8 -6 -3 -9 5 -10 1 -6 -16 6 -20 5 -21 -4
-6 -6 9 -8 22 -5 27 8 13 12 13 21 -2z m-5066 -22 c0 -2 -9 -6 -20 -9 -11 -3
-18 -1 -14 4 5 9 34 13 34 5z m-75 -16 c3 -6 -1 -13 -10 -16 -14 -6 -14 -9 -3
-16 9 -7 8 -8 -5 -4 -10 3 -26 6 -35 7 -9 0 -1 6 18 11 34 11 34 11 10 18 -23
7 -23 8 -3 9 12 1 25 -4 28 -9z m-68 -6 c-3 -3 -12 -4 -19 -1 -8 3 -5 6 6 6
11 1 17 -2 13 -5z m-32 -14 c3 -5 -2 -10 -12 -10 -10 0 -28 -3 -40 -6 -14 -4
-23 -2 -23 5 0 7 4 9 10 6 5 -3 18 -1 27 4 23 13 30 13 38 1z m5229 -6 c3 -8
2 -12 -4 -9 -6 3 -10 10 -10 16 0 14 7 11 14 -7z m31 -44 c-3 -5 -10 -10 -16
-10 -5 0 -9 5 -9 10 0 6 7 10 16 10 8 0 12 -4 9 -10z m-5518 -6 c-3 -3 -12 -4
-19 -1 -8 3 -5 6 6 6 11 1 17 -2 13 -5z m-32 -14 l20 -9 -20 -1 c-17 -2 -16
-3 5 -9 16 -5 1 -7 -40 -6 -85 3 -88 4 -70 15 21 13 39 12 20 -1 -12 -8 -10
-9 10 -5 14 3 34 6 45 7 14 1 10 4 -10 9 -27 7 -28 8 -5 8 14 0 34 -3 45 -8z
m-310 -70 c-28 -7 -29 -8 -5 -10 14 -1 34 -5 45 -9 14 -6 7 -8 -25 -7 -25 0
-58 -3 -75 -7 -22 -5 -25 -5 -10 2 l20 10 -20 1 c-28 2 42 29 75 28 23 0 22
-1 -5 -8z m5920 -59 c-3 -2 -5 2 -5 10 0 12 -2 11 -11 -1 -9 -12 -10 -12 -5 3
3 10 6 26 7 35 0 9 5 4 10 -12 4 -17 6 -32 4 -35z m-5908 23 c-3 -3 -12 -4
-19 -1 -8 3 -5 6 6 6 11 1 17 -2 13 -5z m5915 -78 c7 4 8 2 4 -5 -12 -18 -26
-2 -25 27 l2 27 4 -28 c3 -16 9 -25 15 -21z m-6462 -51 c-46 -18 -64 -17 -25
0 17 8 37 14 45 14 8 0 -1 -7 -20 -14z m6490 -4 c0 -6 -4 -13 -10 -16 -5 -3
-10 1 -10 9 0 9 5 16 10 16 6 0 10 -4 10 -9z m-6463 -13 c0 -8 -15 -14 -36
-14 l-36 -2 35 13 c19 8 35 14 36 14 0 1 1 -5 1 -11z m-157 -32 c0 -2 -7 -7
-16 -10 -8 -3 -12 -2 -9 4 6 10 25 14 25 6z m-10 -46 c11 -8 7 -9 -15 -4 -23
4 -26 3 -15 -5 17 -12 10 -14 -15 -5 -13 5 -14 8 -3 15 17 11 30 11 48 -1z
m-152 -96 c-4 -3 -12 5 -18 18 -12 22 -12 22 6 6 10 -10 15 -20 12 -24z m-28
6 c0 -5 -2 -10 -4 -10 -3 0 -8 5 -11 10 -3 6 -1 10 4 10 6 0 11 -4 11 -10z
m6857 -42 c-3 -7 -5 -2 -5 12 0 14 2 19 5 13 2 -7 2 -19 0 -25z m-15 -145 c-8
-33 -9 -30 -9 32 0 56 2 64 9 38 4 -17 4 -48 0 -70z m-6912 57 c0 -5 -7 -7
-15 -4 -8 4 -12 10 -9 15 6 11 24 2 24 -11z m0 -30 c5 8 9 7 13 -5 4 -9 3 -13
-3 -10 -6 3 -10 1 -10 -5 0 -6 -4 -8 -10 -5 -5 3 -10 14 -9 23 0 12 2 13 6 3
4 -10 7 -10 13 -1z m49 -74 c9 -11 6 -15 -14 -18 -14 -3 -28 -1 -32 5 -3 6 -1
7 5 3 7 -4 12 -1 12 8 0 20 14 21 29 2z m6881 -23 c0 -19 -3 -24 -10 -17 -6 6
-8 18 -4 27 9 24 14 21 14 -10z m-5312 -8 c1 -1 -17 -5 -40 -9 -23 -4 -37 -10
-31 -14 6 -4 -25 -7 -68 -6 -52 0 -84 5 -92 14 -10 10 -7 11 13 5 29 -9 89 -9
140 1 30 6 32 8 15 15 -13 6 -6 6 20 2 22 -3 41 -7 43 -8z m177 5 c-19 -8 -19
-9 -1 -9 11 -1 17 -3 15 -6 -3 -2 -23 -1 -45 2 l-39 7 30 7 c43 10 64 9 40 -1z
m75 0 c-8 -5 -22 -9 -30 -9 -10 0 -8 3 5 9 27 12 43 12 25 0z m162 2 c10 -4
-14 -7 -52 -7 -38 0 -62 3 -52 7 9 4 33 7 52 7 19 0 43 -3 52 -7z m78 -2 c8
-5 11 -10 5 -10 -5 0 -17 5 -25 10 -8 5 -10 10 -5 10 6 0 17 -5 25 -10z
m-2033 -6 c-3 -3 -12 -4 -19 -1 -8 3 -5 6 6 6 11 1 17 -2 13 -5z m1638 -14
c13 -5 14 -9 5 -9 -8 0 -24 4 -35 9 -13 5 -14 9 -5 9 8 0 24 -4 35 -9z m-1624
-17 c13 -15 12 -15 -8 -4 -24 12 -29 21 -14 21 5 0 15 -7 22 -17z m1532 10
c-7 -2 -19 -2 -25 0 -7 3 -2 5 12 5 14 0 19 -2 13 -5z m-1386 -49 c-3 -3 -12
-4 -19 -1 -8 3 -5 6 6 6 11 1 17 -2 13 -5z m118 -12 c-3 -3 -11 0 -18 7 -9 10
-8 11 6 5 10 -3 15 -9 12 -12z m58 11 c-7 -2 -19 -2 -25 0 -7 3 -2 5 12 5 14
0 19 -2 13 -5z m98 -2 c-11 -7 -10 -10 5 -13 17 -3 17 -4 -4 -10 -12 -3 -20
-2 -16 3 3 5 -1 9 -8 9 -9 0 -9 3 2 10 8 5 20 10 25 10 6 0 4 -4 -4 -9z m82 2
c-7 -2 -21 -2 -30 0 -10 3 -4 5 12 5 17 0 24 -2 18 -5z m114 1 c-3 -3 -12 -4
-19 -1 -8 3 -5 6 6 6 11 1 17 -2 13 -5z m280 -13 c15 -9 12 -10 -12 -4 -16 5
-68 8 -115 7 -65 -1 -76 1 -45 7 52 10 148 4 172 -10z m151 12 c-10 -2 -26 -2
-35 0 -10 3 -2 5 17 5 19 0 27 -2 18 -5z m5786 -73 c-10 -41 -26 3 -18 47 l7
38 9 -30 c4 -16 6 -41 2 -55z m-6347 54 c-3 -3 -12 -4 -19 -1 -8 3 -5 6 6 6
11 1 17 -2 13 -5z m56 -1 c-7 -2 -21 -2 -30 0 -10 3 -4 5 12 5 17 0 24 -2 18
-5z m90 0 c-13 -2 -33 -2 -45 0 -13 2 -3 4 22 4 25 0 35 -2 23 -4z m185 0
c-10 -2 -26 -2 -35 0 -10 3 -2 5 17 5 19 0 27 -2 18 -5z m2082 -39 c0 -2 -9 0
-20 6 -11 6 -20 13 -20 16 0 2 9 0 20 -6 11 -6 20 -13 20 -16z m37 -10 c-3 -3
-12 -4 -19 -1 -8 3 -5 6 6 6 11 1 17 -2 13 -5z m-210 -40 c-3 -3 -12 -4 -19
-1 -8 3 -5 6 6 6 11 1 17 -2 13 -5z m-29 -15 c9 0 2 -5 -17 -10 -18 -6 -36 -8
-39 -5 -3 3 3 6 14 6 16 0 17 2 4 11 -12 9 -12 10 3 5 10 -3 26 -6 35 -7z
m-71 -5 c-3 -3 -12 -4 -19 -1 -8 3 -5 6 6 6 11 1 17 -2 13 -5z m2 -20 c10 -9
-35 -3 -49 6 -11 8 -7 9 15 4 17 -4 32 -8 34 -10z m-146 -41 c-7 -2 -19 -2
-25 0 -7 3 -2 5 12 5 14 0 19 -2 13 -5z m-62 -10 c-10 -4 -10 -7 -2 -13 7 -4
-2 -7 -20 -8 l-33 -1 25 14 c13 7 29 13 34 13 6 0 4 -2 -4 -5z m46 -9 c-3 -3
-12 -4 -19 -1 -8 3 -5 6 6 6 11 1 17 -2 13 -5z m38 -22 c-3 -3 -11 0 -18 7 -9
10 -8 11 6 5 10 -3 15 -9 12 -12z m-38 2 c-3 -3 -12 -4 -19 -1 -8 3 -5 6 6 6
11 1 17 -2 13 -5z m-183 -27 c3 3 6 1 6 -5 0 -7 -8 -12 -17 -13 -90 -5 -103
-5 -88 4 9 5 28 6 42 2 21 -5 24 -3 19 10 -4 12 -2 14 13 6 10 -6 21 -7 25 -4z
m-159 -47 c13 -6 15 -9 5 -9 -8 0 -22 4 -30 9 -18 12 -2 12 25 0z m58 3 c-7
-2 -19 -2 -25 0 -7 3 -2 5 12 5 14 0 19 -2 13 -5z m57 -3 c-8 -5 -22 -9 -30
-9 -10 0 -8 3 5 9 27 12 43 12 25 0z m-240 -30 c-13 -9 -13 -11 0 -20 8 -5 11
-10 5 -10 -5 0 -17 5 -25 10 -13 9 -13 11 0 20 8 5 20 10 25 10 6 0 3 -5 -5
-10z m-65 -20 c-3 -5 4 -11 17 -11 l23 -2 -23 -4 c-12 -2 -20 -9 -17 -14 3 -5
-1 -6 -10 -2 -13 5 -14 7 -3 14 10 7 10 9 -2 9 -13 0 -13 1 0 10 19 12 23 12
15 0z m-38 -16 c-3 -3 -12 -4 -19 -1 -8 3 -5 6 6 6 11 1 17 -2 13 -5z m-14
-21 c-7 -2 -19 -2 -25 0 -7 3 -2 5 12 5 14 0 19 -2 13 -5z m-149 -34 c-6 -11
-41 -12 -47 -1 -3 4 8 7 24 8 15 1 26 -3 23 -7z m5043 -11 c-3 -8 -6 -5 -6 6
-1 11 2 17 5 13 3 -3 4 -12 1 -19z m-5120 -14 c-3 -3 -12 -4 -19 -1 -8 3 -5 6
6 6 11 1 17 -2 13 -5z m88 -4 c-3 -5 -23 -9 -43 -9 l-37 2 35 7 c52 11 52 11
45 0z m-145 -10 c-8 -5 -24 -9 -35 -9 -16 1 -16 2 5 9 35 11 48 11 30 0z
m5147 -52 c-2 -13 -4 -3 -4 22 0 25 2 35 4 23 2 -13 2 -33 0 -45z m-5100 46
c-3 -3 -12 -4 -19 -1 -8 3 -5 6 6 6 11 1 17 -2 13 -5z m-217 -44 c-8 -5 -28
-9 -45 -9 l-30 1 30 8 c17 4 37 8 45 9 13 1 13 0 0 -9z m28 -28 c2 -7 -5 -12
-15 -11 -12 0 -14 2 -4 6 11 5 11 7 0 15 -12 8 -12 9 0 6 8 -3 17 -10 19 -16z
m-45 1 c-7 -2 -19 -2 -25 0 -7 3 -2 5 12 5 14 0 19 -2 13 -5z m-223 -45 c-14
-5 -38 -16 -55 -23 -28 -13 -29 -14 -6 -14 13 -1 22 -4 19 -7 -3 -3 -23 -2
-43 2 l-38 7 39 14 c64 24 88 31 99 31 6 1 -1 -4 -15 -10z m5 -28 c-27 -12
-35 -12 -35 0 0 6 12 10 28 9 24 0 25 -1 7 -9z m5462 -67 c-3 -10 -5 -2 -5 17
0 19 2 27 5 18 2 -10 2 -26 0 -35z m20 25 c-3 -8 -6 -5 -6 6 -1 11 2 17 5 13
3 -3 4 -12 1 -19z m30 0 c-3 -8 -6 -5 -6 6 -1 11 2 17 5 13 3 -3 4 -12 1 -19z
m-5791 -16 c-10 -2 -22 0 -28 6 -6 6 0 7 19 4 21 -5 23 -7 9 -10z m44 -17 c-8
-9 -28 -15 -54 -14 l-41 1 38 8 c21 4 43 12 49 18 17 17 23 5 8 -13z m-107 -2
c-7 -2 -19 -2 -25 0 -7 3 -2 5 12 5 14 0 19 -2 13 -5z m5824 -40 c1 -29 -1
-33 -9 -20 -7 14 -3 57 6 57 1 0 3 -17 3 -37z m-5820 21 c-3 -3 -12 -4 -19 -1
-8 3 -5 6 6 6 11 1 17 -2 13 -5z m-207 -44 c0 -17 -27 -23 -47 -11 -15 9 -13
10 12 5 23 -4 26 -3 15 5 -13 9 -13 11 3 11 9 0 17 -5 17 -10z m50 0 c0 -5 -4
-10 -10 -10 -5 0 -10 5 -10 10 0 6 5 10 10 10 6 0 10 -4 10 -10z m-91 -39 c-6
-2 -18 4 -27 13 -15 15 -15 15 10 4 15 -7 23 -15 17 -17z m-72 3 c-3 -3 -12
-4 -19 -1 -8 3 -5 6 6 6 11 1 17 -2 13 -5z m-127 -53 c0 -5 -7 -12 -16 -15
-14 -5 -15 -4 -4 9 14 17 20 19 20 6z m40 -1 c0 -5 -5 -10 -11 -10 -5 0 -7 5
-4 10 3 6 8 10 11 10 2 0 4 -4 4 -10z m6174 -46 c3 -8 2 -12 -4 -9 -6 3 -10
10 -10 16 0 14 7 11 14 -7z m-6377 0 c-3 -3 -12 -4 -19 -1 -8 3 -5 6 6 6 11 1
17 -2 13 -5z m-7 -24 c-8 -5 -22 -9 -30 -9 -10 0 -8 3 5 9 27 12 43 12 25 0z
m-62 -23 c-6 -7 -25 -13 -42 -13 -17 -1 -22 1 -12 3 15 4 16 7 5 14 -9 6 -4 7
15 3 20 -5 27 -4 22 4 -4 8 -2 10 8 6 11 -4 12 -9 4 -17z m6432 19 c0 -3 -4
-8 -10 -11 -5 -3 -10 -1 -10 4 0 6 5 11 10 11 6 0 10 -2 10 -4z m-6363 -22
c-3 -3 -12 -4 -19 -1 -8 3 -5 6 6 6 11 1 17 -2 13 -5z m6340 -31 c1 -22 -1
-24 -8 -10 -6 9 -7 22 -4 27 9 14 10 13 12 -17z m-3277 7 c0 -6 -11 -8 -27 -4
-40 10 -41 14 -5 14 18 0 32 -5 32 -10z m51 -32 c5 -10 6 -18 1 -18 -5 0 -14
11 -20 25 -22 49 -11 44 19 -7z m-211 22 c0 -5 -4 -10 -10 -10 -5 0 -10 5 -10
10 0 6 5 10 10 10 6 0 10 -4 10 -10z m75 0 c-27 -12 -43 -12 -25 0 8 5 22 9
30 9 10 0 8 -3 -5 -9z m-3220 -10 c-3 -5 -14 -10 -23 -10 -15 0 -15 2 -2 10
20 13 33 13 25 0z m3312 -6 c-3 -3 -12 -4 -19 -1 -8 3 -5 6 6 6 11 1 17 -2 13
-5z m-144 -11 c-7 -2 -21 -2 -30 0 -10 3 -4 5 12 5 17 0 24 -2 18 -5z m-3173
-18 c-10 -9 -24 -12 -40 -8 l-25 7 30 7 c47 10 50 10 35 -6z m-76 -4 c4 -5 -3
-7 -14 -4 -23 6 -26 13 -6 13 8 0 17 -4 20 -9z m2979 -18 c-7 -2 -19 -2 -25 0
-7 3 -2 5 12 5 14 0 19 -2 13 -5z m3637 -11 c0 -20 -29 -64 -30 -45 0 6 5 15
11 19 6 3 9 15 6 25 -3 11 -1 19 4 19 5 0 9 -8 9 -18z m-6700 -7 c11 -13 10
-14 -4 -9 -9 3 -16 10 -16 15 0 13 6 11 20 -6z m2955 5 c18 -8 17 -9 -7 -9
-14 -1 -34 -4 -44 -8 -16 -6 -17 -5 -4 10 17 18 26 19 55 7z m58 3 c-7 -2 -19
-2 -25 0 -7 3 -2 5 12 5 14 0 19 -2 13 -5z m94 1 c-3 -3 -12 -4 -19 -1 -8 3
-5 6 6 6 11 1 17 -2 13 -5z m3560 -16 c-3 -8 -6 -5 -6 6 -1 11 2 17 5 13 3 -3
4 -12 1 -19z m-3610 6 c-3 -3 -12 -4 -19 -1 -8 3 -5 6 6 6 11 1 17 -2 13 -5z
m-40 -10 c-3 -3 -12 -4 -19 -1 -8 3 -5 6 6 6 11 1 17 -2 13 -5z m477 -9 c-19
-14 -19 -14 3 -15 12 0 24 -4 28 -9 3 -6 -7 -6 -27 0 -18 5 -35 9 -37 9 -9 0
34 29 43 30 6 0 1 -7 -10 -15z m-3507 -29 c3 -2 -90 1 -102 3 -5 1 1 8 14 15
22 12 49 6 88 -18z m6676 4 c3 -11 1 -18 -4 -14 -5 3 -9 12 -9 20 0 20 7 17
13 -6z m-3924 -19 c11 -7 9 -10 -8 -16 -13 -4 -25 -4 -28 -1 -4 3 2 6 13 7 18
0 18 1 -1 9 -13 6 -15 9 -5 9 8 0 21 -3 29 -8z m-92 -17 c-3 -3 -12 -4 -19 -1
-8 3 -5 6 6 6 11 1 17 -2 13 -5z m40 -10 c-3 -3 -12 -4 -19 -1 -8 3 -5 6 6 6
11 1 17 -2 13 -5z m681 -18 c-2 -20 -5 -23 -20 -15 -10 6 -24 7 -31 3 -7 -5
-6 0 3 10 8 11 16 14 18 7 5 -16 22 -13 22 4 0 8 2 15 5 15 3 0 4 -11 3 -24z
m-735 7 c-7 -2 -19 -2 -25 0 -7 3 -2 5 12 5 14 0 19 -2 13 -5z m-2888 -23 c-3
-5 -12 -10 -18 -10 -7 0 -6 4 3 10 19 12 23 12 15 0z m3545 -19 c-12 -24 -29
-35 -38 -26 -4 3 4 15 18 25 31 24 33 24 20 1z m-952 2 c-10 -2 -26 -2 -35 0
-10 3 -2 5 17 5 19 0 27 -2 18 -5z m4282 -4 c0 -6 -5 -7 -12 -3 -8 5 -9 2 -4
-11 5 -14 4 -16 -7 -7 -8 7 -17 9 -21 5 -4 -4 -4 -1 -1 8 6 17 45 23 45 8z
m-4245 -9 c-11 -5 -27 -9 -35 -9 -9 0 -8 4 5 9 11 5 27 9 35 9 9 0 8 -4 -5 -9z
m-2691 -9 c3 -5 -1 -12 -10 -15 -20 -8 -29 -1 -19 13 8 13 22 14 29 2z m2593
3 c-3 -3 -12 -4 -19 -1 -8 3 -5 6 6 6 11 1 17 -2 13 -5z m32 -18 c-2 -2 -17
-6 -34 -10 -22 -5 -26 -4 -15 4 14 9 59 15 49 6z m-2670 -15 c11 -7 10 -10 -6
-15 -27 -9 -60 3 -41 15 17 11 29 11 47 0z m3618 -7 c-3 -3 -12 -4 -19 -1 -8
3 -5 6 6 6 11 1 17 -2 13 -5z m-1316 -21 c-11 -5 -11 -7 0 -14 8 -5 9 -9 3 -9
-5 0 -19 7 -30 15 -18 14 -18 14 11 14 17 0 24 -3 16 -6z m169 3 c0 -2 -7 -7
-16 -10 -8 -3 -12 -2 -9 4 6 10 25 14 25 6z m-57 -23 c-7 -2 -19 -2 -25 0 -7
3 -2 5 12 5 14 0 19 -2 13 -5z m1061 -25 c-18 -20 -18 -21 -1 -15 10 4 16 3
13 -2 -7 -11 -82 -8 -93 3 -4 5 -3 6 5 2 6 -4 12 -3 12 2 0 6 7 13 16 16 14 5
15 4 4 -9 -14 -16 -3 -20 19 -6 7 5 11 14 7 20 -5 7 -1 9 8 5 10 -4 16 -1 16
7 0 7 3 9 7 6 3 -4 -2 -17 -13 -29z m-1131 5 c-7 -2 -19 -2 -25 0 -7 3 -2 5
12 5 14 0 19 -2 13 -5z m-278 -47 c-22 -7 -35 -15 -30 -18 6 -2 4 -3 -3 -1 -8
1 -23 3 -35 4 -12 0 1 7 28 14 64 16 93 17 40 1z m4755 -36 c-15 -11 -21 -23
-17 -33 8 -22 -8 -30 -22 -13 -8 10 -9 16 -1 21 6 3 7 12 4 18 -4 7 -4 9 1 5
5 -5 15 1 22 12 8 11 19 17 25 14 7 -4 2 -14 -12 -24z m-7030 10 c0 -5 -2 -10
-4 -10 -3 0 -8 5 -11 10 -3 6 -1 10 4 10 6 0 11 -4 11 -10z m3536 -5 c-3 -10
1 -15 11 -15 9 0 13 -3 9 -7 -10 -11 -85 -12 -92 -2 -3 5 3 6 12 2 12 -4 15
-3 10 5 -5 8 -1 10 10 5 12 -4 15 -3 10 5 -5 8 -2 10 8 6 9 -3 16 -1 16 5 0 6
3 11 6 11 3 0 4 -7 0 -15z m-1416 1 c0 -3 -4 -8 -10 -11 -5 -3 -10 -1 -10 4 0
6 5 11 10 11 6 0 10 -2 10 -4z m90 -6 c0 -5 -7 -7 -15 -4 -8 4 -15 8 -15 10 0
2 7 4 15 4 8 0 15 -4 15 -10z m-2231 -21 c-22 -13 -31 -11 -17 5 7 8 17 12 22
9 4 -3 2 -9 -5 -14z m1976 -24 c52 -17 36 -17 -45 0 -48 9 -56 13 -30 13 19 0
53 -5 75 -13z m42 9 c-3 -3 -12 -4 -19 -1 -8 3 -5 6 6 6 11 1 17 -2 13 -5z
m60 0 c-3 -3 -12 -4 -19 -1 -8 3 -5 6 6 6 11 1 17 -2 13 -5z m-2120 -37 c-1
-23 -7 -33 -19 -34 -10 -1 -20 3 -24 8 -7 13 15 41 27 33 5 -3 9 2 9 10 0 9 2
16 4 16 3 0 4 -15 3 -33z m1903 29 c0 -2 -7 -6 -15 -10 -8 -3 -15 -1 -15 4 0
6 7 10 15 10 8 0 15 -2 15 -4z m1585 -15 c-3 -6 -14 -11 -23 -11 -13 0 -13 2
4 14 21 15 30 14 19 -3z m-1515 -1 c0 -13 -11 -13 -30 0 -12 8 -11 10 8 10 12
0 22 -4 22 -10z m-110 -4 c0 -3 -4 -8 -10 -11 -5 -3 -10 -1 -10 4 0 6 5 11 10
11 6 0 10 -2 10 -4z m63 -13 c-7 -2 -19 -2 -25 0 -7 3 -2 5 12 5 14 0 19 -2
13 -5z m1542 -15 c17 -1 26 -6 20 -9 -16 -10 -77 10 -69 22 4 8 9 8 13 1 3 -6
20 -12 36 -14z m-60 -8 c3 -6 -1 -7 -9 -4 -18 7 -21 14 -7 14 6 0 13 -4 16
-10z m-1776 -21 c-9 -5 -8 -8 2 -12 8 -2 5 -2 -6 0 -24 6 -39 6 -85 -2 -34 -5
-34 -5 5 8 43 14 104 19 84 6z m5350 -8 c8 -14 7 -20 -3 -24 -10 -4 -13 2 -12
19 1 29 2 29 15 5z m-3629 0 c0 -12 -20 -25 -27 -18 -7 7 6 27 18 27 5 0 9 -4
9 -9z m-3437 -32 c-4 -15 0 -22 15 -25 11 -3 22 -17 25 -30 4 -24 -7 -33 -18
-14 -5 8 -12 7 -23 -2 -14 -12 -14 -10 -3 10 6 12 8 22 3 22 -9 0 -13 27 -6
48 6 21 12 13 7 -9z m3367 7 c0 -2 -12 -11 -27 -20 l-28 -17 24 20 c23 21 31
25 31 17z m-2117 -43 c-13 -2 -23 -9 -23 -14 0 -5 -12 -8 -27 -8 -18 1 -21 3
-10 6 9 2 15 8 13 11 -2 4 12 8 32 8 21 1 27 -1 15 -3z m5783 -4 c3 -5 -3 -6
-12 -2 -14 5 -16 3 -10 -12 6 -18 6 -18 -12 -2 -10 9 -22 14 -27 10 -4 -5 -5
-3 -2 3 8 13 55 15 63 3z m-5696 -3 c0 -11 -19 -15 -25 -6 -3 5 1 10 9 10 9 0
16 -2 16 -4z m87 -2 c-3 -3 -12 -4 -19 -1 -8 3 -5 6 6 6 11 1 17 -2 13 -5z
m1863 2 c0 -2 -7 -7 -16 -10 -8 -3 -12 -2 -9 4 6 10 25 14 25 6z m-2001 -20
c-2 -2 -22 -6 -44 -9 -28 -5 -34 -4 -20 3 19 8 73 14 64 6z m-214 -16 c-3 -5
-10 -10 -16 -10 -5 0 -9 5 -9 10 0 6 7 10 16 10 8 0 12 -4 9 -10z m2192 -26
c-3 -3 -12 -4 -19 -1 -8 3 -5 6 6 6 11 1 17 -2 13 -5z m-3007 -14 c18 -12 2
-12 -25 0 -13 6 -15 9 -5 9 8 0 22 -4 30 -9z m67 4 c-3 -3 -12 -4 -19 -1 -8 3
-5 6 6 6 11 1 17 -2 13 -5z m196 -1 c-7 -2 -19 -2 -25 0 -7 3 -2 5 12 5 14 0
19 -2 13 -5z m252 -3 c-3 -5 -25 -9 -48 -9 l-42 2 35 7 c52 11 62 11 55 0z
m-642 -7 c-7 -2 -19 -2 -25 0 -7 3 -2 5 12 5 14 0 19 -2 13 -5z m50 -10 c-7
-2 -19 -2 -25 0 -7 3 -2 5 12 5 14 0 19 -2 13 -5z m124 1 c-3 -3 -12 -4 -19
-1 -8 3 -5 6 6 6 11 1 17 -2 13 -5z m500 0 c-3 -3 -12 -4 -19 -1 -8 3 -5 6 6
6 11 1 17 -2 13 -5z m-212 -14 c-16 -4 -41 -8 -55 -8 -22 0 -22 1 5 8 17 4 41
8 55 8 22 0 22 -1 -5 -8z m143 3 c-10 -2 -28 -2 -40 0 -13 2 -5 4 17 4 22 1
32 -1 23 -4z m2386 -2 c4 -5 -4 -7 -16 -5 -13 2 -17 1 -10 -2 10 -4 7 -10 -9
-22 -18 -12 -24 -13 -27 -3 -4 11 -6 11 -14 0 -8 -11 -9 -11 -5 1 2 9 14 14
28 13 13 -1 18 0 10 3 -11 5 -11 8 0 15 18 11 36 11 43 0z m-2841 -8 c-13 -2
-35 -2 -50 0 -16 2 -5 4 22 4 28 0 40 -2 28 -4z m6565 -47 c-16 -5 -28 -14
-28 -19 0 -5 7 -7 15 -3 20 7 19 3 -3 -17 -16 -15 -17 -14 -18 16 0 29 3 32
30 33 l31 0 -27 -10z m-3878 -16 c0 -5 -5 -10 -11 -10 -5 0 -7 5 -4 10 3 6 8
10 11 10 2 0 4 -4 4 -10z m-35 -40 c-27 -12 -43 -12 -25 0 8 5 22 9 30 9 10 0
8 -3 -5 -9z m-64 -31 c-5 -13 -10 -19 -10 -12 -1 15 10 45 15 40 3 -2 0 -15
-5 -28z m3909 -9 c0 -18 -22 -22 -37 -7 -21 21 -8 40 18 27 10 -6 19 -15 19
-20z m-3990 -14 c0 -2 -7 -7 -16 -10 -8 -3 -12 -2 -9 4 6 10 25 14 25 6z m15
-25 c-3 -6 -18 -10 -33 -10 -21 1 -22 2 -7 6 11 3 24 9 29 14 12 11 20 4 11
-10z m-100 -31 c-3 -5 -11 -10 -16 -10 -6 0 -7 5 -4 10 3 6 11 10 16 10 6 0 7
-4 4 -10z m-55 -25 c-14 -8 -29 -14 -35 -14 -5 0 1 6 15 14 14 8 30 14 35 14
6 0 -1 -6 -15 -14z m55 -5 c3 -5 2 -10 -4 -10 -5 0 -13 5 -16 10 -3 6 -2 10 4
10 5 0 13 -4 16 -10z m-25 -20 c18 -12 2 -12 -25 0 -13 6 -15 9 -5 9 8 0 22
-4 30 -9z m-53 -6 c-3 -3 -12 -4 -19 -1 -8 3 -5 6 6 6 11 1 17 -2 13 -5z
m2218 -15 c-18 -5 -33 -5 -39 1 -7 7 4 10 30 9 39 -1 39 -1 9 -10z m80 -8 c-3
-6 -11 -11 -17 -11 -6 0 -6 6 2 15 14 17 26 13 15 -4z m1666 2 c13 -16 12 -17
-3 -4 -10 7 -18 15 -18 17 0 8 8 3 21 -13z m-4031 -2 c0 -5 -22 -17 -50 -26
-27 -9 -50 -21 -50 -26 0 -6 -5 -7 -12 -3 -8 5 10 18 47 35 33 15 61 28 63 28
1 1 2 -3 2 -8z m2290 -4 c14 3 21 2 17 -3 -5 -5 -37 -9 -71 -9 -45 0 -59 3
-52 11 7 7 23 8 46 3 19 -4 46 -5 60 -2z m104 -9 c-8 -27 -12 -33 -19 -27 -7
8 7 49 17 49 5 0 6 -10 2 -22z m-437 -54 c-3 -3 -12 -4 -19 -1 -8 3 -5 6 6 6
11 1 17 -2 13 -5z m72 -3 c11 -7 5 -11 -23 -16 -20 -4 -40 -5 -43 -1 -4 3 7 6
23 6 22 0 26 3 14 10 -13 9 -13 10 0 10 8 0 21 -4 29 -9z m1893 -7 c-11 -8
-23 -9 -34 -3 -25 13 -23 15 16 15 29 0 32 -2 18 -12z m8 -21 c0 -1 -8 -7 -19
-12 -13 -7 -23 -6 -35 2 -16 11 -13 13 18 13 20 0 36 -1 36 -3z m-1959 -18
c-42 -19 -50 -19 -25 0 10 8 28 14 39 14 14 0 10 -4 -14 -14z m403 -1 c3 -8 2
-12 -4 -9 -6 3 -10 10 -10 16 0 14 7 11 14 -7z m-2557 -10 c-3 -3 -12 -4 -19
-1 -8 3 -5 6 6 6 11 1 17 -2 13 -5z m4050 -12 c7 6 15 9 17 7 2 -2 -8 -13 -22
-23 -14 -11 -22 -14 -17 -7 6 10 2 11 -15 6 -20 -6 -21 -5 -9 8 8 9 18 12 23
6 6 -5 15 -4 23 3z m-2143 -9 c4 -5 24 -13 44 -20 l37 -12 -40 6 c-35 5 -86
33 -59 33 6 0 14 -3 18 -7z m120 -2 c4 -5 -3 -7 -14 -4 -23 6 -26 13 -6 13 8
0 17 -4 20 -9z m446 -26 c-7 -8 -18 -15 -24 -15 -6 0 -2 7 8 15 25 19 32 19
16 0z m-2640 -10 c-14 -8 -32 -14 -40 -14 -8 0 -1 6 15 14 40 18 57 18 25 0z
m4159 6 c7 -5 9 -11 5 -14 -5 -3 -15 1 -22 9 -14 16 -5 18 17 5z m-2064 -10
c-6 -5 -21 -12 -35 -16 -24 -7 -24 -7 -5 9 21 16 56 23 40 7z m566 -10 c-13
-10 -32 -16 -43 -13 -30 7 -29 19 1 14 16 -2 32 1 35 7 4 6 13 11 19 11 7 0 1
-9 -12 -19z m1468 -28 c-6 -6 -18 -9 -26 -6 -11 4 -14 2 -9 -5 5 -8 1 -10 -10
-5 -12 4 -15 3 -10 -5 5 -8 1 -10 -10 -5 -14 5 -16 3 -11 -11 4 -9 3 -15 -2
-11 -16 9 -9 43 8 37 8 -3 12 -1 8 4 -3 6 8 10 26 10 26 -1 31 3 29 19 -2 16
-1 17 7 5 7 -9 6 -18 0 -27z m-4095 18 c4 -5 -3 -7 -14 -4 -23 6 -26 13 -6 13
8 0 17 -4 20 -9z m1856 -33 c-13 -5 -31 -7 -39 -5 -10 3 -7 5 7 6 13 0 21 5
18 10 -4 5 4 7 16 3 22 -5 22 -5 -2 -14z m64 13 c4 -5 -3 -7 -14 -4 -23 6 -26
13 -6 13 8 0 17 -4 20 -9z m-2094 -25 c0 -2 -7 -7 -16 -10 -8 -3 -12 -2 -9 4
6 10 25 14 25 6z m1990 -21 c-46 -18 -61 -18 -30 0 14 8 34 14 45 14 13 0 8
-5 -15 -14z m655 -5 c16 -17 16 -20 3 -15 -9 4 -19 13 -22 21 -7 19 -2 18 19
-6z m-2665 -7 c0 -3 -9 -3 -20 0 -11 3 -20 0 -20 -6 0 -6 -3 -8 -6 -4 -12 11
6 25 26 20 11 -3 20 -8 20 -10z m2634 1 c3 -9 2 -12 -5 -9 -6 4 -19 -1 -30
-11 -14 -13 -16 -20 -8 -31 9 -10 8 -13 -4 -13 -29 0 -27 19 5 49 18 17 34 31
34 31 1 0 5 -7 8 -16z m-2594 -4 c0 -5 -8 -10 -17 -10 -15 0 -16 2 -3 10 19
12 20 12 20 0z m1730 -20 c-34 -11 -60 -11 -35 0 11 5 29 8 40 8 16 0 15 -2
-5 -8z m85 0 l-20 -9 20 -1 20 -1 -20 -9 c-27 -12 -43 -12 -25 0 22 14 0 12
-55 -5 -27 -8 -50 -13 -52 -11 -5 5 40 23 82 34 51 12 76 13 50 2z m2273 -6
c8 -9 4 -11 -14 -10 -13 0 -24 4 -24 8 0 3 -8 9 -17 11 -10 2 -4 4 13 3 17 0
36 -6 42 -12z m-4253 -24 c3 -6 -1 -7 -9 -4 -18 7 -21 14 -7 14 6 0 13 -4 16
-10z m4202 4 c-3 -3 -12 -4 -19 -1 -8 3 -5 6 6 6 11 1 17 -2 13 -5z m-1567
-19 c-15 -18 -10 -18 24 -5 14 5 28 5 31 1 5 -10 -28 -21 -64 -21 -23 0 -24 1
-6 20 21 23 34 27 15 5z m1601 8 c-8 -3 -25 -15 -38 -27 -13 -11 -38 -21 -55
-22 -21 -1 -26 1 -17 7 8 5 22 6 33 3 13 -4 16 -3 11 6 -5 8 -4 11 2 7 6 -4
18 2 28 13 10 11 25 20 34 19 12 0 13 -2 2 -6z m-4261 -14 c-12 -9 -11 -10 8
-6 12 3 22 1 22 -4 0 -11 -15 -11 -49 -2 -23 6 -23 7 -5 14 28 11 41 10 24 -2z
m-55 -9 c-3 -5 -12 -10 -18 -10 -7 0 -6 4 3 10 19 12 23 12 15 0z m1958 3 c-7
-2 -19 -2 -25 0 -7 3 -2 5 12 5 14 0 19 -2 13 -5z m-237 -38 c-26 -19 -42 -19
-26 0 7 8 20 15 29 15 13 -1 13 -3 -3 -15z m51 -10 c0 -8 -2 -13 -5 -10 -3 2
-13 0 -24 -6 -11 -6 -22 -8 -25 -6 -2 3 8 12 24 20 15 8 28 15 29 16 0 1 1 -6
1 -14z m2427 -3 c2 -4 -4 -8 -14 -8 -10 0 -16 4 -14 8 3 4 9 8 14 8 5 0 11 -4
14 -8z m-4296 -21 c11 -7 10 -9 -3 -14 -9 -4 -13 -3 -10 3 8 13 -1 13 -28 -1
-21 -10 -21 -10 -3 5 23 18 26 19 44 7z m2707 -19 c-3 -3 -11 0 -18 7 -9 10
-8 11 6 5 10 -3 15 -9 12 -12z m-985 -12 c20 -6 21 -8 5 -8 -11 0 -31 4 -45 8
-20 6 -21 8 -5 8 11 0 31 -4 45 -8z m2463 -2 c-2 -5 -15 -8 -29 -8 -14 0 -23
3 -21 8 3 4 16 7 30 7 14 0 23 -3 20 -7z m47 8 c0 -2 -12 -11 -27 -20 l-28
-17 24 20 c23 21 31 25 31 17z m-4320 -26 c0 -5 -7 -10 -16 -10 -8 0 -12 5 -9
10 3 6 10 10 16 10 5 0 9 -4 9 -10z m27 -12 c-3 -8 -6 -5 -6 6 -1 11 2 17 5
13 3 -3 4 -12 1 -19z m1740 16 c-3 -3 -12 -4 -19 -1 -8 3 -5 6 6 6 11 1 17 -2
13 -5z m983 -32 c0 -1 -9 2 -20 8 -17 9 -28 7 -58 -11 -43 -26 -37 -17 9 16
30 20 34 20 51 6 10 -8 18 -17 18 -19z m-1082 -2 c-13 -21 -28 -27 -28 -10 0
5 8 14 18 19 23 14 24 14 10 -9z m2575 2 c-10 -10 -20 -14 -22 -9 -2 5 3 13
10 18 24 15 30 10 12 -9z m-4217 -14 c3 -3 -15 -5 -39 -4 -24 0 -44 6 -44 12
0 10 71 3 83 -8z m-106 2 c-8 -5 -19 -10 -25 -10 -5 0 -3 5 5 10 8 5 20 10 25
10 6 0 3 -5 -5 -10z m2808 2 c8 -6 2 -9 -17 -9 -17 0 -28 4 -25 9 7 10 25 10
42 0z m1462 -17 c-7 -8 -19 -15 -27 -15 -8 0 -11 -5 -7 -12 5 -8 2 -9 -11 -4
-10 4 -21 2 -25 -5 -4 -6 -7 1 -7 16 0 19 3 23 10 16 14 -14 30 -14 21 0 -4 7
0 9 14 5 11 -4 23 -2 27 4 3 5 9 10 12 10 3 0 0 -7 -7 -15z m-2666 -5 c16 -6
26 -6 26 0 0 5 8 6 17 3 15 -6 14 -7 -3 -13 -10 -4 -29 -3 -42 1 -37 14 -50 9
-17 -6 17 -7 24 -14 17 -14 -21 -1 -53 19 -47 30 8 11 17 11 49 -1z m-1674
-15 c-7 -8 -17 -15 -22 -15 -6 0 -5 7 2 15 7 8 17 15 22 15 6 0 5 -7 -2 -15z
m-50 -21 c0 -8 -19 -13 -24 -6 -3 5 1 9 9 9 8 0 15 -2 15 -3z m2767 -16 c0 -7
-14 -14 -30 -14 l-30 -1 24 13 c30 17 36 17 36 2z m-1170 -20 c-3 -8 -6 -5 -6
6 -1 11 2 17 5 13 3 -3 4 -12 1 -19z m-137 -9 c-12 -9 -10 -10 9 -5 17 3 21 2
13 -6 -5 -5 -20 -7 -32 -3 -18 6 -20 9 -9 16 20 13 37 11 19 -2z m2740 1 c8
-5 11 -10 5 -10 -5 0 -17 5 -25 10 -8 5 -10 10 -5 10 6 0 17 -5 25 -10z
m-1495 -10 c3 -5 2 -10 -4 -10 -5 0 -13 5 -16 10 -3 6 -2 10 4 10 5 0 13 -4
16 -10z m-1170 -9 c3 -6 -3 -9 -12 -9 -10 0 -27 -2 -38 -6 -13 -5 -11 -2 5 8
30 18 37 19 45 7z m1145 -11 c8 -5 11 -10 5 -10 -5 0 -17 5 -25 10 -8 5 -10
10 -5 10 6 0 17 -5 25 -10z m-52 -14 c-7 -8 -17 -12 -22 -9 -4 3 -2 9 5 14 22
13 31 11 17 -5z m-2728 -2 c0 -2 -9 -8 -19 -13 -14 -8 -20 -7 -24 2 -3 7 5 13
19 13 13 1 24 0 24 -2z m-81 -30 c-13 -14 -37 -35 -54 -46 -16 -11 -7 1 20 26
55 51 72 60 34 20z m2859 17 c9 -5 4 -8 -16 -7 -17 1 -28 4 -25 9 6 9 25 9 41
-2z m-1360 -32 c-11 -7 -10 -9 1 -9 8 0 12 -2 9 -5 -10 -10 -37 7 -32 20 3 8
12 11 21 8 12 -5 12 -7 1 -14z m42 12 c0 -6 -4 -12 -8 -15 -5 -3 -9 1 -9 9 0
8 4 15 9 15 4 0 8 -4 8 -9z m2705 -1 c13 -6 15 -9 5 -9 -8 0 -22 4 -30 9 -18
12 -2 12 25 0z m-1519 -29 c0 -17 -4 -27 -9 -24 -5 3 -13 0 -17 -7 -5 -8 -10
-9 -14 -2 -3 6 3 13 14 17 11 3 20 11 20 17 0 5 -7 7 -16 4 -14 -5 -15 -4 -4
9 19 22 26 18 26 -14z m1479 15 c11 -7 29 -16 40 -19 19 -4 18 -5 -2 -6 -12 0
-25 -5 -28 -11 -3 -5 -11 -10 -18 -10 -8 0 -8 3 1 12 8 8 6 16 -10 30 -25 21
-12 24 17 4z m-4205 -21 c-7 -9 -15 -13 -17 -11 -6 6 20 36 26 30 2 -2 -2 -10
-9 -19z m-30 -25 c0 -5 -5 -10 -11 -10 -5 0 -7 5 -4 10 3 6 8 10 11 10 2 0 4
-4 4 -10z m4206 -18 c-3 -6 -16 -8 -28 -4 -13 3 -19 1 -15 -5 4 -6 0 -14 -9
-17 -10 -4 -13 -2 -8 6 5 7 2 9 -8 6 -8 -4 -15 -1 -15 6 0 7 16 11 39 11 21 0
38 4 38 9 0 5 3 7 6 3 3 -3 3 -10 0 -15z m-4249 -7 c5 -15 -25 -60 -35 -51 -2
3 3 12 12 21 18 18 21 35 6 35 -5 0 -10 -5 -10 -12 0 -6 -3 -9 -6 -5 -8 7 4
27 17 27 5 0 12 -7 16 -15z m1403 -10 c14 -8 21 -14 15 -14 -5 0 -21 6 -35 14
-14 8 -20 14 -15 14 6 0 21 -6 35 -14z m1317 -7 c-3 -8 -6 -5 -6 6 -1 11 2 17
5 13 3 -3 4 -12 1 -19z m-21 -5 c16 -21 18 -43 4 -43 -5 0 -10 9 -10 20 0 23
0 23 -35 10 -16 -6 -23 -14 -19 -22 4 -7 3 -8 -5 -4 -6 4 -8 12 -5 18 5 8 1 9
-10 5 -11 -4 -15 -3 -11 4 4 6 13 8 20 5 7 -2 21 2 32 9 23 18 23 18 39 -2z
m-1321 -3 c3 -5 1 -10 -4 -10 -6 0 -11 5 -11 10 0 6 2 10 4 10 3 0 8 -4 11
-10z m-1447 -25 c-12 -14 -23 -25 -25 -25 -2 0 4 11 13 25 9 14 20 25 25 25 5
0 -1 -11 -13 -25z m1372 -10 c11 -13 10 -14 -4 -9 -9 3 -16 10 -16 15 0 13 6
11 20 -6z m1377 -1 c-3 -3 -12 -4 -19 -1 -8 3 -5 6 6 6 11 1 17 -2 13 -5z
m-1520 -10 c-3 -3 -12 -4 -19 -1 -8 3 -5 6 6 6 11 1 17 -2 13 -5z m2877 -3 c3
-5 -3 -11 -13 -14 -14 -3 -18 -1 -14 9 6 16 19 18 27 5z m41 -1 c3 -5 2 -10
-4 -10 -5 0 -13 5 -16 10 -3 6 -2 10 4 10 5 0 13 -4 16 -10z m-1519 -30 c-3
-39 -10 -45 -36 -27 l-21 15 28 20 c15 12 29 22 30 22 0 0 0 -13 -1 -30z
m-1363 13 c-7 -2 -19 -2 -25 0 -7 3 -2 5 12 5 14 0 19 -2 13 -5z m2797 -21 c0
-5 -7 -9 -15 -9 -8 0 -15 4 -15 9 0 4 7 8 15 8 8 0 15 -4 15 -8z m-1487 -38
c-8 -21 -32 -17 -30 5 1 12 7 17 18 14 10 -3 15 -11 12 -19z m-2588 -39 c0
-24 -3 -39 -7 -32 -10 15 -11 93 -1 83 4 -3 7 -26 8 -51z m2538 38 c-7 -18
-22 -33 -35 -33 -6 0 33 49 39 50 1 0 -1 -8 -4 -17z m-2566 -30 c-3 -10 -5 -4
-5 12 0 17 2 24 5 18 2 -7 2 -21 0 -30z m1083 15 c-13 -5 -31 -7 -39 -5 -10 3
-7 5 7 6 13 0 21 5 18 10 -4 5 4 7 16 3 22 -5 22 -5 -2 -14z m90 7 c-14 -8
-32 -14 -40 -14 -8 0 -1 6 15 14 40 18 57 18 25 0z m-120 -34 c-8 -5 -26 -12
-40 -15 l-25 -7 25 15 c14 9 32 15 40 15 13 0 13 -1 0 -8z m1445 -11 c-3 -5
-12 -10 -18 -10 -7 0 -6 4 3 10 19 12 23 12 15 0z m65 -4 c0 -2 -13 -6 -29 -8
-17 -2 -28 -1 -25 4 5 8 54 12 54 4z m-2557 -31 c-7 -21 -13 -19 -13 6 0 11 4
18 10 14 5 -3 7 -12 3 -20z m774 9 c-3 -3 -12 -4 -19 -1 -8 3 -5 6 6 6 11 1
17 -2 13 -5z m114 -8 c-13 -5 -29 -5 -42 0 -17 8 -13 9 21 9 34 0 38 -1 21 -9z
m2884 4 c3 -5 1 -10 -4 -10 -6 0 -11 5 -11 10 0 6 2 10 4 10 3 0 8 -4 11 -10z
m40 0 c3 -5 0 -10 -7 -10 -10 0 -10 -2 1 -9 14 -9 13 -9 -53 -28 -12 -3 -16
-1 -12 6 4 6 18 11 31 11 18 0 22 4 18 20 -5 21 11 28 22 10z m45 0 c8 -5 11
-10 5 -10 -5 0 -17 5 -25 10 -8 5 -10 10 -5 10 6 0 17 -5 25 -10z m-125 -19
c-3 -6 -11 -11 -17 -11 -6 0 -6 6 2 15 14 17 26 13 15 -4z m-3709 -34 c-2 -7
-5 -4 -5 6 -1 10 -5 15 -11 12 -6 -4 -7 1 -3 11 6 15 7 15 15 0 5 -9 7 -22 4
-29z m787 36 c-13 -2 -33 -2 -45 0 -13 2 -3 4 22 4 25 0 35 -2 23 -4z m1602
-13 c-4 -6 -1 -19 7 -28 12 -15 11 -16 -4 -4 -9 8 -23 10 -30 6 -7 -4 -4 2 6
14 20 23 32 29 21 12z m-1630 -8 c-9 -9 -65 -11 -65 -3 0 5 16 9 35 8 19 -1
32 -3 30 -5z m2835 -46 c-6 -6 -18 -5 -32 1 -21 10 -21 10 9 9 19 -1 28 -5 23
-10z m50 7 c0 -5 -11 -13 -24 -19 -23 -11 -24 -10 -13 7 12 19 37 26 37 12z
m-3072 -10 c-10 -2 -26 -2 -35 0 -10 3 -2 5 17 5 19 0 27 -2 18 -5z m-498 -13
c0 -5 -4 -10 -10 -10 -5 0 -10 5 -10 10 0 6 5 10 10 10 6 0 10 -4 10 -10z
m450 -10 c0 -5 -5 -10 -11 -10 -5 0 -7 5 -4 10 3 6 8 10 11 10 2 0 4 -4 4 -10z
m53 3 c-7 -2 -19 -2 -25 0 -7 3 -2 5 12 5 14 0 19 -2 13 -5z m-433 -18 c31
-18 16 -18 -30 0 -23 9 -28 14 -15 14 11 0 31 -6 45 -14z m2170 -5 c8 -15 8
-20 -3 -20 -7 0 -13 9 -13 20 0 11 1 20 3 20 1 0 7 -9 13 -20z m-39 -13 c-10
-9 -11 -8 -5 6 3 10 9 15 12 12 3 -3 0 -11 -7 -18z m1195 1 c4 -7 4 -10 -1 -6
-4 4 -15 2 -24 -5 -14 -11 -14 -10 -2 6 16 20 18 21 27 5z m-56 -18 c0 -5 10
-11 23 -11 20 -1 20 -2 2 -6 -11 -3 -26 -10 -33 -16 -7 -5 -16 -7 -19 -3 -4 4
-1 11 6 15 7 5 10 14 7 20 -4 6 -2 11 3 11 6 0 11 -4 11 -10z m-1177 -50 c3
-11 2 -22 -2 -24 -4 -3 -8 6 -9 20 -2 29 4 31 11 4z m-4 -90 c0 -8 -6 -1 -14
15 l-15 30 4 -29 c2 -17 -2 -36 -11 -44 -12 -13 -13 -11 -8 14 5 23 4 26 -5
14 -13 -17 -10 -7 10 33 l14 28 13 -23 c7 -13 12 -30 12 -38z m1031 50 c18
-12 2 -12 -25 0 -13 6 -15 9 -5 9 8 0 22 -4 30 -9z m-270 -70 c-8 -5 -19 -10
-25 -10 -5 0 -3 5 5 10 8 5 20 10 25 10 6 0 3 -5 -5 -10z m54 -2 c-5 -8 -2 -9
12 -4 10 4 15 4 11 -1 -5 -4 -25 -8 -45 -10 l-37 -2 30 14 c38 17 37 17 29 3z
m-805 -28 c13 0 60 -47 54 -54 -4 -3 -13 -6 -22 -6 -13 0 -13 2 -3 9 10 6 7
10 -11 13 -21 4 -25 1 -22 -14 2 -10 0 -16 -6 -13 -5 4 -7 11 -4 16 4 5 1 9
-6 9 -8 0 -8 4 1 15 7 9 9 19 5 23 -4 4 -10 1 -12 -6 -3 -6 -9 -10 -13 -7 -5
3 -2 15 8 26 14 16 18 17 20 4 2 -8 7 -15 11 -15z m761 -7 c0 -3 -9 -3 -20 0
-11 3 -23 1 -26 -4 -3 -5 -10 -6 -17 -2 -7 4 -4 9 9 13 19 7 54 2 54 -7z
m-171 -59 c9 -10 -53 6 -63 17 -6 5 4 5 24 -1 18 -5 35 -12 39 -16z m-84 6
l20 -9 -20 1 c-11 0 -33 4 -50 8 l-30 8 30 0 c17 0 39 -3 50 -8z m-440 -31
c12 -19 -5 -23 -22 -6 -16 16 -16 17 -1 17 9 0 20 -5 23 -11z m428 4 c-7 -2
-21 -2 -30 0 -10 3 -4 5 12 5 17 0 24 -2 18 -5z"/>
<path d="M4451 11894 c0 -11 3 -14 6 -6 3 7 2 16 -1 19 -3 4 -6 -2 -5 -13z"/>
<path d="M8732 9260 c0 -14 2 -19 5 -12 2 6 2 18 0 25 -3 6 -5 1 -5 -13z"/>
<path d="M1660 8220 c-13 -8 -12 -10 3 -10 9 0 17 5 17 10 0 12 -1 12 -20 0z"/>
<path d="M1358 8053 c7 -3 16 -2 19 1 4 3 -2 6 -13 5 -11 0 -14 -3 -6 -6z"/>
<path d="M1086 7831 c-4 -7 -5 -15 -2 -18 9 -9 19 4 14 18 -4 11 -6 11 -12 0z"/>
<path d="M7770 7462 c0 -12 19 -26 26 -19 2 2 -2 10 -11 17 -9 8 -15 8 -15 2z"/>
<path d="M4773 6403 c-18 -7 -16 -23 2 -23 8 0 15 7 15 15 0 8 -1 15 -2 14 -2
0 -9 -3 -15 -6z"/>
<path d="M14390 11343 c-477 -32 -781 -83 -1094 -183 -197 -63 -363 -147 -586
-295 -446 -296 -736 -645 -886 -1068 -64 -180 -93 -338 -101 -557 -14 -396 76
-806 262 -1185 74 -152 256 -457 351 -588 101 -141 339 -476 376 -530 18 -26
51 -73 74 -105 22 -31 61 -86 86 -122 25 -36 100 -144 168 -240 67 -95 172
-257 233 -360 173 -290 219 -362 262 -409 91 -99 240 -188 331 -199 84 -9 179
50 225 140 64 126 66 370 4 673 -60 292 -252 845 -340 976 -90 134 -116 211
-76 224 24 7 111 -25 182 -68 30 -18 115 -60 189 -94 74 -34 178 -82 230 -106
52 -25 111 -52 130 -60 19 -8 206 -94 415 -192 520 -243 1021 -475 1195 -552
80 -36 168 -75 195 -87 243 -112 769 -302 975 -353 142 -36 290 -38 371 -5
264 106 159 325 -326 679 -123 89 -355 238 -525 335 -240 138 -305 179 -700
443 -510 340 -810 561 -810 597 0 14 35 9 126 -17 163 -47 716 -233 1184 -398
424 -150 533 -188 625 -222 423 -157 901 -306 1195 -374 232 -54 514 -91 675
-91 163 1 334 52 361 108 32 65 -60 194 -231 330 -100 79 -268 184 -530 330
-85 47 -397 203 -545 272 -417 194 -688 312 -1295 565 -458 191 -866 364 -957
407 -122 56 -223 117 -220 133 1 6 19 12 39 13 116 11 1025 -100 2028 -247
436 -64 736 -107 953 -136 403 -54 631 -19 703 108 69 124 -56 323 -270 430
-100 50 -180 80 -466 175 -371 123 -540 169 -765 208 -80 14 -199 41 -265 61
-249 74 -644 196 -760 233 -66 21 -228 73 -360 115 -478 152 -753 247 -775
267 -56 52 4 62 285 49 126 -6 295 -11 375 -11 80 0 224 -9 320 -20 617 -68
975 -43 1079 76 27 30 31 42 31 95 0 74 -23 121 -88 184 -140 136 -475 272
-907 369 -38 9 -128 30 -199 47 -555 130 -999 198 -1491 229 -145 9 -552 11
-665 3z"/>
<path d="M10085 8733 c-582 -27 -1213 -359 -1653 -868 -48 -55 -89 -102 -92
-105 -55 -54 -186 -227 -584 -768 -350 -476 -495 -664 -647 -837 -15 -16 -69
-78 -120 -137 -137 -155 -195 -258 -224 -400 -30 -139 -16 -208 55 -272 140
-126 427 -70 805 157 299 179 699 490 812 631 93 115 139 150 168 126 20 -16
19 -105 0 -187 -8 -34 -28 -180 -44 -325 -17 -145 -44 -382 -61 -528 -43 -370
-84 -729 -119 -1040 -17 -146 -33 -278 -35 -295 -3 -16 -12 -100 -21 -185 -68
-701 -78 -1178 -30 -1417 19 -91 71 -180 143 -243 38 -34 52 -40 89 -40 58 0
111 28 154 82 146 180 277 553 399 1133 127 602 470 1765 520 1765 5 0 12 -19
16 -42 11 -57 7 -984 -6 -1463 -39 -1408 -17 -1907 100 -2351 58 -220 127
-347 217 -400 39 -23 44 -24 71 -10 231 120 408 964 537 2566 13 173 29 369
35 435 5 66 19 242 30 390 51 669 87 896 130 816 48 -91 272 -1240 481 -2476
22 -132 51 -289 64 -350 13 -60 28 -144 35 -185 57 -362 195 -601 347 -600
105 1 234 148 277 316 27 104 36 270 36 659 0 384 -12 577 -44 750 -31 168
-55 2169 -26 2228 31 64 59 11 139 -274 39 -135 90 -311 114 -390 25 -79 62
-223 82 -319 114 -535 244 -856 380 -940 82 -51 201 5 261 122 28 56 58 163
76 273 18 116 15 532 -5 725 -9 85 -21 211 -27 280 -101 1194 -436 2266 -928
2975 -117 168 -247 307 -437 465 -268 223 -543 379 -818 465 -62 19 -155 43
-207 54 -88 18 -329 43 -368 39 -9 -1 -44 -3 -77 -5z"/>
</g>
</svg>
